<?xml version="1.0" standalone="no"?>
<!DOCTYPE svg PUBLIC "-//W3C//DTD SVG 1.1//EN" "http://www.w3.org/Graphics/SVG/1.1/DTD/svg11.dtd" >
<svg>
<metadata>
Created by FontForge 20110222 at Mon Sep  8 18:14:50 2014
 By Orthosie Webhosting
Copyright (c) 1993 Adobe Systems Incorporated.  All Rights Reserved.Rusticana is a trademark of Linotype-Hell AG and/or its subsidiaries.
</metadata>
<defs>
<font id="RusticanaRomanRoman" horiz-adv-x="908" >
  <font-face 
    font-family="RusticanaRomanRoman"
    font-weight="400"
    font-stretch="normal"
    units-per-em="1000"
    panose-1="2 11 5 0 0 0 0 0 0 0"
    ascent="800"
    descent="-200"
    x-height="710"
    cap-height="717"
    bbox="-35 -234 1163 947"
    underline-thickness="50"
    underline-position="-50"
    unicode-range="U+0020-2122"
  />
<missing-glyph horiz-adv-x="502" 
d="M-1 0h500v500h-500v-500zM9 10v480h480v-480h-480z" />
    <glyph glyph-name=".notdef" horiz-adv-x="502" 
d="M-1 0h500v500h-500v-500zM9 10v480h480v-480h-480z" />
    <glyph glyph-name=".null" horiz-adv-x="0" 
 />
    <glyph glyph-name="nonmarkingreturn" horiz-adv-x="333" 
 />
    <glyph glyph-name="space" unicode=" " horiz-adv-x="351" 
 />
    <glyph glyph-name="exclam" unicode="!" horiz-adv-x="389" 
d="M254 726l-121 -37q12 -35 19 -91t11 -120.5t5 -120.5t2 -120l39 -3q9 204 20 308.5t35 169.5zM191 -5q18 15 36.5 33.5t28.5 32.5q-14 22 -27.5 36.5t-33.5 27.5q-15 -9 -31 -22.5t-39 -39.5q16 -23 29.5 -37t36.5 -31z" />
    <glyph glyph-name="quotedbl" unicode="&#x22;" horiz-adv-x="333" 
d="M74 712q-23 0 -36 -14.5t-13 -44.5q0 -13 4 -58.5t10 -105.5l6 -62q2 -12 10 -21.5t19 -9.5t19 9.5t10 21.5l6 62q8 88 11 119.5t3 44.5q0 30 -12.5 44.5t-36.5 14.5zM259 712q-23 0 -36 -14.5t-13 -44.5q0 -13 4 -58.5t10 -105.5l6 -62q2 -12 10 -21.5t19 -9.5t19 9.5
t10 21.5l6 62q8 88 11 119.5t3 44.5q0 30 -12.5 44.5t-36.5 14.5z" />
    <glyph glyph-name="dollar" unicode="$" horiz-adv-x="499" 
d="M85 9q31 1 55 2.5t72 5.5q1 0 21 2q0 -44 -6 -95l-1 -5h54q-4 18 -5.5 38t-1.5 67q65 13 111 56.5t46 109.5q0 48 -22 79t-73 69l-78 57q-57 43 -77 66t-20 51q0 38 35 67.5t92 29.5q23 0 45 -4.5t54 -13.5l4 -1v107q-20 -2 -52 -6.5t-65 -10.5v8q1 38 2 54.5t5 35.5h-54
v-3q4 -29 5.5 -50.5t1.5 -54.5q-45 -12 -75.5 -30.5t-48 -40t-24.5 -43.5t-7 -44q0 -51 28.5 -86t98.5 -86l2 -1q55 -41 79 -59t38.5 -33t20 -29.5t5.5 -35.5q0 -39 -30 -70.5t-90 -31.5q-49 0 -83.5 13.5t-61.5 31.5v-116z" />
    <glyph glyph-name="percent" unicode="%" horiz-adv-x="903" 
d="M519 169q0 -72 43.5 -121t107.5 -49q29 0 58.5 13.5t53.5 39t38.5 62t14.5 81.5q0 49 -15.5 82t-39 51.5t-48 25.5t-44.5 7q-34 0 -65 -15t-54.5 -42t-36.5 -61.5t-13 -73.5zM569 169q0 66 36 103.5t81 37.5q40 0 70 -31t30 -89t-32.5 -95.5t-83.5 -37.5q-46 0 -73.5 33
t-27.5 79zM53 518q0 -72 43.5 -121t107.5 -49q29 0 58.5 13.5t53.5 39t38.5 62t14.5 81.5q0 49 -15.5 82t-39 51.5t-47.5 25.5t-45 7q-34 0 -65 -15t-54.5 -42t-36.5 -61.5t-13 -73.5zM104 518q0 65 35.5 103t80.5 38q41 0 70.5 -31t29.5 -89t-32.5 -95.5t-82.5 -37.5
q-46 0 -73.5 33t-27.5 79zM343 -33q59 183 132 374t156 377l-69 26q-60 -185 -133 -375t-156 -375z" />
    <glyph glyph-name="ampersand" unicode="&#x26;" horiz-adv-x="867" 
d="M834 412q-61 -9 -105 -12.5t-91 -4.5q0 25 2 64.5t7 78.5l-89 -22q9 -64 10 -121q-264 0 -396 4q9 49 48.5 96t96 85t116 59.5t104.5 21.5q8 0 22 -1l15 -2v113q-90 -19 -175.5 -56t-154.5 -92t-110 -128t-41 -160q0 -77 32 -140.5t93 -109t146.5 -70t189.5 -24.5
q12 0 33 1q28 0 56 1q0 6 -2 57.5t-3 83.5q-1 45 -1 99v40v64q55 -2 93.5 -6.5t84.5 -17.5zM570 236q0 -28 -0.5 -79t-1.5 -74q-42 -4 -75 -4q-83 0 -145.5 23t-102.5 61t-59.5 81.5t-19.5 84.5q30 1 72 2t88 2t173 2q42 1 71 1v-100z" />
    <glyph glyph-name="quotesingle" unicode="'" horiz-adv-x="222" 
d="M111 712q-23 0 -36 -14.5t-13 -44.5q0 -13 4 -58.5t10 -105.5l6 -62q2 -12 10 -21.5t19 -9.5t19 9.5t10 21.5l6 62q8 88 11 119.5t3 44.5q0 30 -12.5 44.5t-36.5 14.5z" />
    <glyph glyph-name="parenleft" unicode="(" horiz-adv-x="369" 
d="M333 10q-23 31 -45 66.5t-44 78.5q-38 77 -48 124t-10 87q0 37 6 74t21 80t43.5 93t72.5 108l-9 52q-36 -36 -74.5 -84.5t-72 -103t-54.5 -109t-21 -99.5q0 -41 22 -106.5t62 -131.5q34 -55 69.5 -101t76.5 -95z" />
    <glyph glyph-name="parenright" unicode=")" horiz-adv-x="369" 
d="M36 706q23 -31 45 -66t44 -79q38 -77 48 -123.5t10 -87.5q0 -37 -5.5 -74t-21 -79.5t-44 -93t-72.5 -108.5l9 -52q36 36 74.5 84.5t72 103t54.5 109t21 99.5q0 41 -22 106.5t-62 131.5q-34 55 -69.5 101t-76.5 95z" />
    <glyph glyph-name="asterisk" unicode="*" horiz-adv-x="460" 
d="M391 636q-7 -5 -23 -15t-35.5 -21.5l-39 -23t-37.5 -20.5l8 -21q54 9 92 11.5t77 2.5zM369 400q-10 11 -16 17q-32 33 -53 55.5t-38 42.5l-19 -12q21 -51 31 -85t18 -70q0 -2 1 -6zM38 536h32q27 1 43 1q48 0 82 -2l4 22q-53 21 -87.5 38.5t-60.5 33.5q-3 1 -4 2z
M137 366q1 2 2 5q15 27 36 65t39 66l-17 14q-44 -36 -75.5 -56.5t-60.5 -37.5q-1 -1 -3 -2zM184 720q26 -109 33 -153l22 1q14 88 40 164z" />
    <glyph glyph-name="comma" unicode="," horiz-adv-x="277" 
d="M64 -121l18 20q20 22 61 70q32 36 73 85q-20 24 -32.5 37.5t-31.5 31.5l-27 -9q-23 -69 -46 -125t-45 -104z" />
    <glyph glyph-name="hyphen" unicode="-" horiz-adv-x="297" 
d="M240 407q-27 -3 -48 -4t-35 -1q-15 0 -40.5 1.5t-59.5 5.5v-97h1q26 9 45.5 13.5t47.5 4.5q13 0 35.5 -1.5t53.5 -6.5v85z" />
    <glyph glyph-name="period" unicode="." horiz-adv-x="277" 
d="M139 -5q17 14 35 32.5t30 33.5q-14 22 -27.5 36.5t-33.5 27.5q-15 -9 -31 -22.5t-39 -39.5q16 -23 29.5 -37t36.5 -31z" />
    <glyph glyph-name="slash" unicode="/" horiz-adv-x="406" 
d="M54 -54q34 82 77.5 185.5t86 201.5t89 203t89.5 198l-51 22q-82 -200 -166 -393.5t-176 -394.5z" />
    <glyph glyph-name="zero" unicode="0" horiz-adv-x="701" 
d="M331 14q53 0 101.5 21.5t85.5 65t58 108t21 146.5q0 75 -18.5 137.5t-52 107t-79 68.5t-97.5 24q-53 0 -98.5 -25.5t-79.5 -73t-52.5 -114.5t-18.5 -147q0 -81 20.5 -140t49.5 -96q20 -26 44 -43t47 -25.5t40.5 -11t28.5 -2.5zM336 77q-74 0 -115.5 68t-41.5 191
q0 137 43 211q20 35 54 59t74 24q72 0 118.5 -74.5t46.5 -210.5q0 -85 -14.5 -132t-41.5 -79q-27 -31 -60 -44t-63 -13z" />
    <glyph glyph-name="one" unicode="1" horiz-adv-x="555" 
d="M390 -1q-9 42 -13.5 68t-7 54t-3.5 64t-1 99q0 112 0.5 192.5t2.5 146.5q1 31 2 54.5t3 45.5l-21 11q-34 -25 -70.5 -50t-76 -50.5t-78.5 -48.5t-70 -37l29 -93q24 26 45.5 45.5t44.5 37.5t51.5 36t68.5 42l1 -9q1 -32 2 -66t1 -102q0 -104 -3.5 -178.5t-9 -123.5
t-12 -78t-14.5 -59z" />
    <glyph glyph-name="two" unicode="2" horiz-adv-x="703" 
d="M628 118h-1q-21 -11 -46.5 -19t-70.5 -12q-29 -3 -52.5 -4t-60.5 -2.5t-69.5 -2t-99.5 -2.5h-11q75 67 122 112.5t98 103.5q64 73 86.5 125t22.5 100q0 31 -13.5 64.5t-41 63t-71.5 48t-102 18.5q-40 0 -90 -9t-107 -25l19 -113l29 -1q10 15 20.5 28.5t28.5 27t44.5 22.5
t61.5 9q33 0 58 -12t41 -32.5t23.5 -45t7.5 -48.5q0 -50 -31 -108.5t-82.5 -118.5t-109.5 -117t-138 -128l9 -40q175 12 306 12q39 0 91.5 -2t108.5 -10z" />
    <glyph glyph-name="three" unicode="3" horiz-adv-x="626" 
d="M117 -41l5 2q83 26 140 49.5t118 65.5q23 16 44.5 35t41 44t31.5 55.5t12 64.5q0 42 -24.5 83t-70.5 68q-27 15 -51 23.5t-49 14.5l-3 1q21 22 46 48.5t52.5 55.5t91.5 95l14 14l-12 35q-100 -8 -162 -10t-93 -2q-99 0 -183 14l4 -114l2 1q21 10 48.5 18t78.5 12
q9 1 31.5 2t62.5 2.5t63 2.5t33 1q-7 -7 -73 -78q-15 -16 -28 -30t-16 -18q-27 -28 -42.5 -41.5t-31.5 -25.5l8 -30q34 -1 60.5 -5t53.5 -16q46 -20 71.5 -54t25.5 -78q0 -46 -32 -86.5t-84 -71t-114.5 -51t-122.5 -29.5z" />
    <glyph glyph-name="four" unicode="4" horiz-adv-x="702" 
d="M486 0q-11 42 -17 85t-7 115q53 -1 98 -5.5t72 -9.5l15 112q-44 -16 -91.5 -22.5t-92.5 -9.5v0q1 45 4 87.5t9 97.5l-86 30v-2q4 -37 6.5 -80t2.5 -134q-42 -1 -92 -1q-56 0 -164 2q15 27 46.5 76t74.5 109.5t95 123t103 110.5l-62 69q-33 -50 -81.5 -119t-95.5 -134
t-101 -138.5t-99 -132.5l5 -36q95 4 145 6t117 2q20 0 44 -1h62v-5q-3 -39 -9.5 -86t-25.5 -109h125z" />
    <glyph glyph-name="five" unicode="5" horiz-adv-x="628" 
d="M501 714l-7 -1q-46 -5 -85.5 -8.5t-87.5 -3.5q-22 0 -51 1t-64 3q-21 1 -35 2q-43 2 -50 2l-23 -260q40 7 73 9.5t53 2.5q47 0 79 -9t56 -24q28 -18 45 -50t17 -68q0 -50 -29 -96t-76.5 -83t-103.5 -62.5t-109 -36.5l54 -67q68 26 130 63.5t111.5 85t78.5 102.5t29 112
q0 94 -73.5 145t-186.5 51q-40 0 -80 -4l15 117q9 0 37 1h32q75 0 125.5 -5t91.5 -12q2 -1 3 -1z" />
    <glyph glyph-name="six" unicode="6" horiz-adv-x="665" 
d="M372 757l-1 -1q-75 -80 -119.5 -131t-81.5 -107.5t-58.5 -118t-21.5 -127.5q0 -48 17.5 -96.5t52 -88t84 -63.5t110.5 -24q53 0 96.5 20t73.5 54t45.5 74.5t15.5 80.5q0 36 -13 72t-39.5 67t-68.5 49.5t-97 18.5q-18 0 -50 -5q-3 0 -8 -1l-12 -65q32 8 65 8q64 0 102 -40
t38 -105q0 -67 -39 -114.5t-107 -47.5q-39 0 -72 17t-57.5 46.5t-37.5 68.5t-13 82q0 69 23.5 130t62 113t80.5 93.5t107 99.5l1 1z" />
    <glyph glyph-name="seven" unicode="7" horiz-adv-x="592" 
d="M59 603h2q26 6 51.5 10t67.5 7.5t104.5 6t147.5 2.5l-193 -366l-15 -28q-35 -67 -48.5 -92t-23 -42.5t-19 -32t-22.5 -34.5l111 -56q3 22 8.5 45.5t15 50t25 65.5t40.5 95q20 46 47 104t55.5 116t61 120.5t63.5 116.5l-9 21q-72 -7 -143 -10.5t-122 -3.5
q-73 0 -120.5 6.5t-79.5 15.5z" />
    <glyph glyph-name="eight" unicode="8" horiz-adv-x="664" 
d="M377 403l64 55q41 36 61 65t20 67q0 53 -45 94t-117 41q-41 0 -80.5 -16.5t-71.5 -44t-50.5 -58.5t-18.5 -59q0 -41 28.5 -73.5t96.5 -85.5l-1 -1q-30 -22 -53 -42t-46.5 -47.5t-38.5 -60.5t-15 -69q0 -69 53 -119.5t144 -50.5q50 0 96 15.5t81 43.5t54.5 65t19.5 77
q0 46 -27 84.5t-81 72.5zM321 435l-4 3q-49 33 -74 57.5t-25 55.5q0 17 11.5 36.5t31.5 36.5t45.5 27.5t53.5 10.5q39 0 64 -19.5t25 -50.5q0 -23 -10.5 -41.5t-34.5 -43.5q-21 -21 -44.5 -41t-38.5 -31zM384 312q47 -31 68.5 -59t21.5 -63q0 -31 -16.5 -55t-42.5 -40
t-55 -23.5t-55 -7.5q-39 0 -63.5 14.5t-35.5 34.5t-14 35.5t-3 24.5q0 48 29.5 85.5t100.5 96.5z" />
    <glyph glyph-name="nine" unicode="9" horiz-adv-x="665" 
d="M303 -46l1 1q75 80 119.5 131t81.5 107.5t58.5 117.5t21.5 127q0 48 -17.5 96.5t-52 88t-84 63.5t-110.5 24q-53 0 -96.5 -20t-73.5 -53.5t-45.5 -74t-15.5 -80.5q0 -36 13 -72t39.5 -67t68.5 -49.5t97 -18.5q15 0 27.5 1.5t30.5 3.5l12 65l-4 -1q-38 -7 -61 -7
q-64 0 -102 40t-38 105q0 68 39.5 115.5t106.5 47.5q39 0 72 -17t57 -47t37 -69t13 -82q0 -69 -23.5 -130.5t-62 -113.5t-80 -93.5t-107.5 -99.5z" />
    <glyph glyph-name="colon" unicode=":" horiz-adv-x="277" 
d="M139 -5q18 15 36.5 33.5t28.5 32.5q-14 22 -27.5 36.5t-33.5 27.5q-15 -9 -31 -22.5t-39 -39.5q16 -23 29.5 -37t36.5 -31zM139 303q18 14 36.5 33t28.5 33q-14 22 -27.5 36.5t-33.5 27.5q-17 -10 -32.5 -23.5t-37.5 -38.5q16 -23 29.5 -37t36.5 -31z" />
    <glyph glyph-name="semicolon" unicode=";" horiz-adv-x="277" 
d="M139 303q18 14 36.5 33t28.5 33q-14 22 -27.5 36.5t-33.5 27.5q-17 -10 -32.5 -23.5t-37.5 -38.5q16 -23 29.5 -37t36.5 -31zM64 -121l18 20q20 22 61 70q32 36 73 85q-20 24 -32.5 37.5t-31.5 31.5l-27 -9q-23 -69 -46 -125t-45 -104z" />
    <glyph glyph-name="question" unicode="?" horiz-adv-x="518" 
d="M231 217l4 40q30 30 43 44q32 32 50 51t21 22q33 41 54 79t21 80q0 41 -21 70.5t-59.5 50t-90.5 36.5t-136 36l-24 -106q39 6 64.5 8.5t38.5 2.5q68 0 108 -34.5t40 -76.5q0 -31 -22 -71t-79 -107q-6 -8 -28 -32t-32 -34q-30 -34 -33 -37l53 -34zM199 -5q18 15 36.5 33.5
t28.5 32.5q-14 22 -27.5 36.5t-33.5 27.5q-15 -9 -31 -22.5t-39 -39.5q16 -23 29.5 -37t36.5 -31z" />
    <glyph glyph-name="A" unicode="A" horiz-adv-x="836" 
d="M832 38q-14 14 -23 24t-20.5 24.5t-27 37t-34.5 52.5q-64 101 -113.5 193t-96.5 187q-30 61 -44 92.5t-25 67.5l-37 8q-34 -80 -79 -155l-239 -423q-22 -40 -38.5 -65.5t-32.5 -47.5l117 -55q1 31 5 52t15 55q20 59 38.5 96t42.5 73q39 3 105.5 4t132.5 1q33 0 64 -1
t52 -3q32 -53 64.5 -123t53.5 -150zM557 329q-95 -3 -133 -4t-79 -1q-11 0 -34 1h-37q9 19 24 47.5t32 60t40 72.5t43 73q4 -7 23.5 -40t47.5 -79q16 -27 33.5 -58.5t39.5 -71.5z" />
    <glyph glyph-name="B" unicode="B" horiz-adv-x="723" 
d="M283 -5q38 0 79 2.5t64 8.5q67 17 113.5 66.5t46.5 123.5q0 36 -11.5 63.5t-31.5 48t-42 34t-49 24.5q48 22 85.5 64.5t37.5 100.5q0 31 -13.5 63t-44 60.5t-81.5 46t-122 17.5q-33 0 -72 -4t-74 -8l-4 -1v-3q5 -33 8 -62.5t6 -76t5 -109t2 -142.5q0 -77 -2.5 -128
t-6.5 -83t-9 -53t-14 -50zM312 325q38 -1 67 -6.5t62 -22.5q28 -14 47 -39t19 -62q0 -58 -51.5 -94.5t-131.5 -36.5q-26 0 -61 4q-5 75 -8 147t-3 144q0 19 0.5 63t1 63t2 84t1.5 75l3 1q33 5 59 5q72 0 121 -33.5t49 -88.5q0 -35 -17.5 -61t-44.5 -43.5t-54.5 -28
t-61.5 -20.5l-2 -1z" />
    <glyph glyph-name="C" unicode="C" horiz-adv-x="520" 
d="M363 750q-5 -4 -47 -38q-25 -20 -51.5 -41.5t-34.5 -28.5q-78 -67 -109 -133t-31 -139q0 -81 37.5 -156.5t100.5 -143.5q5 -5 53 -52l33.5 -33.5l21.5 -21.5l71 99q-39 15 -76 36t-75 60q-45 46 -66.5 103t-21.5 109q0 60 29.5 120t94.5 103q30 19 58 31t60 24h1z" />
    <glyph glyph-name="D" unicode="D" horiz-adv-x="759" 
d="M165 -25q78 24 152 52.5t155 78t137 121.5t56 163q0 24 -6 54t-22 63.5t-46 68.5t-75 65q-74 50 -159.5 69t-201.5 25q14 -83 18.5 -170t4.5 -201q0 -16 -0.5 -47t-1.5 -81t-2.5 -93.5t-3.5 -78.5q-1 -31 -5 -83v-6zM252 656h1q60 -3 109 -14t100 -45q51 -33 84.5 -82.5
t33.5 -118.5q0 -46 -15.5 -86.5t-52 -79.5t-98 -77t-152.5 -75q-11 91 -13.5 183t-2.5 230q0 23 0.5 38.5t2.5 60.5q2 38 3 66z" />
    <glyph glyph-name="E" unicode="E" horiz-adv-x="672" 
d="M541 709q-107 -10 -199 -10q-34 0 -76 1q-23 1 -54 2t-49 3v-1q5 -31 8 -54.5t6 -62t5 -91.5t2 -118q0 -126 -4.5 -209.5t-22.5 -165.5q17 0 74 1q81 1 97 1q54 0 112.5 -4t93.5 -9l7 99q-95 -22 -270 -22q-6 41 -11 101t-7 166q42 -1 71 -2t49.5 -2t43.5 -2.5t48 -4.5
l5 89q-47 -7 -98.5 -9.5t-119.5 -2.5l1 32q0 14 0.5 50.5t1 56t1.5 40.5t2 50q9 1 37 2t37 1q63 0 111 -4t93 -16z" />
    <glyph glyph-name="F" unicode="F" horiz-adv-x="632" 
d="M491 409q-55 -7 -114.5 -10.5t-120.5 -5.5q0 96 0.5 150.5t2.5 89.5q34 2 47 2h30q74 0 115 -4.5t83 -12.5h1l5 94q-40 -5 -100.5 -8t-96.5 -3q-31 0 -69 1h-12q-29 1 -55.5 2t-44.5 2q12 -67 17 -148t5 -161q0 -43 -0.5 -105t-1.5 -89q-2 -80 -7 -123t-13 -81h134
q-23 71 -30.5 148t-9.5 182h38q106 -2 127 -2q14 -1 31.5 -1.5t34.5 -1.5z" />
    <glyph glyph-name="G" unicode="G" horiz-adv-x="686" 
d="M560 768q-68 -17 -140.5 -48t-140.5 -74q-93 -59 -142 -135.5t-49 -172.5q0 -34 9 -73.5t32 -81.5t65 -79t104 -62q37 -15 78.5 -25.5t78 -16t65.5 -8t52 -3.5q0 91 5.5 143.5t14.5 103.5l1 4h-139q25 -39 33 -74.5t9 -81.5q-82 0 -145.5 20.5t-105.5 56.5t-63 83t-21 99
q0 62 30.5 113.5t77 89t96.5 62t93 36.5q29 9 50 12t40 3q6 0 12 -1h12z" />
    <glyph glyph-name="H" unicode="H" horiz-adv-x="910" 
d="M758 0q-10 29 -15 58q-7 45 -10.5 106t-3.5 117q0 89 7.5 201.5t21.5 230.5l-120 12q14 -70 18 -142.5t4 -175.5q-88 -13 -184.5 -18t-222.5 -5q2 188 25 329h-129q12 -46 19 -101.5t10.5 -110.5t4.5 -90.5t1 -57.5q0 -32 -1 -71.5t-3.5 -85t-8 -98t-13.5 -98.5h138
q-24 60 -33.5 137.5t-9.5 175.5q87 6 157.5 9t147.5 3q39 0 59 -0.5t43 -1.5q0 -100 -5.5 -172.5t-26.5 -150.5h130z" />
    <glyph glyph-name="I" unicode="I" horiz-adv-x="444" 
d="M294 0q-8 25 -14 46.5t-10.5 56.5t-7.5 88.5t-3 129.5q0 74 10 220q5 63 10.5 99.5t14.5 76.5l-134 -11q7 -27 11 -48.5t8 -54.5t6 -79t2 -106q0 -34 -1.5 -96t-3.5 -99q-4 -82 -10.5 -130.5t-14.5 -90.5l-1 -2h138z" />
    <glyph glyph-name="J" unicode="J" horiz-adv-x="444" 
d="M157 709q29 -82 38.5 -171t9.5 -203q0 -88 -2 -143q-1 -44 -4.5 -80t-8.5 -52q-9 -29 -27.5 -50.5t-41.5 -34t-46.5 -18t-44.5 -5.5q-29 0 -61 8l15 -105l14 7t21 9l80 32q96 38 139 73.5t43 94.5v18q-1 18 -1 27v15q-3 86 -4 116t-1 77q0 176 15 398z" />
    <glyph glyph-name="K" unicode="K" horiz-adv-x="702" 
d="M271 0q-7 46 -11.5 100t-7.5 109.5t-4 92t-1 57.5q68 -61 104.5 -95.5t68 -68.5t61.5 -74.5t67 -97.5l106 68q-5 4 -55 46q-64 52 -69 57q-112 101 -202 192q32 32 65 61t81 63q29 21 51 34.5t37 21t28 12.5t32 11h1l-94 84q-32 -38 -56 -65t-52.5 -55t-64 -60.5
t-109.5 -99.5q0 57 1 94t3.5 69t7.5 69t13 86h-130v-1q11 -49 16.5 -76.5t10 -65.5t7.5 -85t3 -106q0 -77 -3 -137t-8 -101t-10 -69t-13 -64l-1 -6h127z" />
    <glyph glyph-name="L" unicode="L" horiz-adv-x="554" 
d="M147 715q10 -44 16 -99.5t9 -110t4 -102t1 -80.5q0 -31 -1 -86t-2.5 -99.5t-3.5 -91t-3 -59.5l19 -8q159 62 366 95l-34 104q-37 -20 -62 -32.5t-53 -24.5t-62.5 -26t-90.5 -36q0 13 -1.5 44.5t-1.5 60.5q-1 23 -1 64q0 106 3 184t7.5 131.5t9.5 87.5t12 73v1z" />
    <glyph glyph-name="M" unicode="M" horiz-adv-x="1130" 
d="M576 136q17 38 37 75t56 90q19 27 45 66q88 128 130 185q17 -68 32.5 -133.5t32 -142t31 -149t24.5 -138.5l109 26q-34 57 -64.5 167t-77.5 319q-2 8 -18 83q-8 42 -13.5 66.5t-7.5 31.5l-51 4q-33 -56 -69 -113.5t-71.5 -111.5t-70 -104t-59.5 -84q-9 18 -33.5 75
t-52.5 126t-55 138.5t-43 118.5h-55q-38 -110 -72.5 -197.5t-71.5 -172.5q-20 -49 -35.5 -83.5t-34.5 -73.5q-41 -84 -96 -170l115 -56q16 76 41 159q9 30 26 79t41 113t52.5 135t56.5 137q18 -42 42.5 -101.5t50 -124.5t50 -130.5t38.5 -108.5h41z" />
    <glyph glyph-name="N" unicode="N" horiz-adv-x="945" 
d="M277 -19q-8 37 -14 83.5t-9 97.5t-4.5 99.5t-1.5 92.5q0 64 3 144l1 16q24 -18 56 -45t61 -53.5t58 -54.5t62 -60l1 -1q57 -55 93.5 -94t60.5 -67.5t37 -47t25 -37.5q27 8 61 27h1q-2 47 -2.5 105t-0.5 137q0 57 3 140.5t8 144.5q4 40 9 69t12 57l-122 12
q8 -36 11.5 -55.5t7 -52t5.5 -75t2 -99.5q0 -22 -0.5 -51.5t-2 -72t-3 -79t-2.5 -51.5q-134 128 -213.5 204t-122.5 118.5t-70 71t-69 75.5l-1 1q-8 -3 -24.5 -11t-26.5 -14q6 -30 10 -62q3 -26 5 -80.5t2 -126.5q0 -58 -1.5 -117.5t-4 -113t-7.5 -99.5t-11 -75h118z" />
    <glyph glyph-name="O" unicode="O" 
d="M439 -1q81 0 153 27.5t126.5 77t85 116.5t30.5 143q0 68 -25 130.5t-73.5 111.5t-118 77t-154.5 28q-78 0 -151 -29t-129 -83q-36 -34 -58 -69t-33 -67t-14.5 -58t-3.5 -52q0 -90 37 -156.5t89 -110.5q49 -42 112.5 -64t126.5 -22zM451 72q-65 0 -120 24t-93 64.5
t-58.5 91.5t-20.5 104t21 103.5t61 90.5t97 63.5t125 23.5q70 0 124 -25.5t89.5 -67.5t53 -91.5t17.5 -96.5q0 -65 -27 -118.5t-71.5 -90.5t-96.5 -56t-101 -19z" />
    <glyph glyph-name="P" unicode="P" horiz-adv-x="666" 
d="M295 0q-10 30 -18.5 68t-14.5 104q-9 104 -9 223q0 60 1.5 126t4.5 121q5 0 10 1q32 3 57 3q75 0 119 -32.5t44 -96.5q0 -40 -18 -70.5t-45.5 -49.5t-52.5 -29t-53 -19l1 -1q26 -20 50 -35t54 -25q23 17 44.5 36.5t42.5 47.5t35 64.5t14 77.5q0 34 -9 61.5t-22.5 47
t-27.5 32t-29 22.5q-39 24 -84.5 32.5t-97.5 8.5q-25 0 -61 -3.5t-60 -7.5q15 -168 15 -348q0 -69 -1 -115.5t-5 -86t-10.5 -76t-18.5 -81.5h145z" />
    <glyph glyph-name="Q" unicode="Q" 
d="M527 -168q-24 67 -25 172q80 13 142.5 47.5t105 84t63.5 108t21 119.5q0 68 -25 130.5t-73.5 111.5t-117.5 77t-155 28q-91 0 -160 -32t-120 -80q-36 -34 -58 -69t-33 -67t-14.5 -58.5t-3.5 -51.5q0 -62 19 -113.5t47 -88t52 -58t43 -33.5q32 -21 80 -39t112 -21v-1
q-2 -26 -9 -70t-24 -96h133zM451 72q-65 0 -120 24t-93 64.5t-58.5 91.5t-20.5 104t21 103.5t61 90.5t97 63.5t125 23.5q70 0 124 -25.5t89.5 -67.5t53 -91.5t17.5 -96.5q0 -65 -27 -118.5t-71.5 -90.5t-96.5 -56t-101 -19z" />
    <glyph glyph-name="R" unicode="R" horiz-adv-x="739" 
d="M291 0q-10 30 -18.5 68t-14.5 104q-9 104 -9 223q0 60 1.5 125.5t4.5 120.5l33 3t24 1q43 0 73.5 -10t49 -27t26.5 -36.5t8 -38.5q0 -27 -14 -55.5t-39 -46.5q-20 -14 -39.5 -21.5t-45.5 -14.5v0q-4 -15 -5 -26q10 -5 19 -10.5t21.5 -16t30.5 -30t41 -47.5
q55 -67 87.5 -121.5t62.5 -116.5l119 73q-49 43 -85.5 77t-66.5 64.5t-56 58.5t-63 69q22 13 41 26t37.5 32.5t30.5 45.5t12 58q0 16 -4.5 35t-15.5 39.5t-32 40.5t-53 35q-42 20 -87 25.5t-87 5.5q-25 0 -41.5 -1t-70.5 -6q15 -159 15 -346q0 -67 -1.5 -115t-5 -86.5
t-10.5 -77t-18 -80.5h145z" />
    <glyph glyph-name="S" unicode="S" horiz-adv-x="444" 
d="M294 754q-39 -28 -70 -52.5t-57.5 -55t-42.5 -66.5t-16 -77q0 -36 11.5 -63.5t42.5 -70.5l2 -3q31 -45 45.5 -66.5t23.5 -39t12.5 -33t3.5 -36.5q0 -56 -36.5 -88.5t-110.5 -58.5l82 -94l7 7q55 61 79.5 90t41 53t23 45.5t6.5 47.5q0 35 -15 65t-59 90q-42 59 -60.5 93.5
t-18.5 73.5q0 30 13.5 52t36 37.5t45.5 24.5t60 22h1z" />
    <glyph glyph-name="T" unicode="T" horiz-adv-x="648" 
d="M401 0q-22 74 -31 168t-9 199q0 161 7 262q65 0 107.5 -1t73.5 -4.5t53.5 -9.5t43.5 -16v110q-53 -8 -111 -12t-166 -4q-60 0 -103.5 1t-82.5 3t-76.5 5l-87.5 7v-110q50 15 108 22.5t160 8.5q1 -24 2 -49t2 -74q1 -69 1 -103t-1.5 -89.5t-2.5 -103.5l-1 -20
q-4 -77 -11.5 -117.5t-18.5 -71.5v-1h144z" />
    <glyph glyph-name="U" unicode="U" horiz-adv-x="927" 
d="M91 678q11 -25 18.5 -41.5t15.5 -39t18.5 -57t26.5 -91.5q5 -17 16 -60t25 -102q16 -61 16 -62l1 -3q14 -53 26 -88.5t33 -68.5t55 -53.5t83 -20.5q52 0 98.5 25t80.5 68q13 17 24.5 38t24.5 50.5t26.5 64t39.5 102.5q39 102 57 149t31.5 79.5t25.5 59t31 64.5l-129 41
q0 -6 1 -22v-13q0 -5 -1 -14v-15q-1 -23 -8 -57.5t-17.5 -73.5t-22 -77t-24.5 -75q-33 -94 -57 -152t-47.5 -94.5t-50.5 -53t-62 -16.5q-36 0 -61.5 18t-44.5 55.5t-36.5 96t-40.5 156.5q-13 56 -20.5 97t-11.5 75t-5.5 65.5t-1.5 75.5z" />
    <glyph glyph-name="V" unicode="V" horiz-adv-x="681" 
d="M351 -10l50 118q27 65 63 143t75 157t79 154.5t71 127.5l-120 49q-7 -52 -20 -101t-37.5 -111.5t-65.5 -153.5t-109 -232q-19 38 -42 88t-46 103t-43 102t-38 95l-1 4q-10 26 -16 43t-14 42t-15 55t-11 55l-119 -45q31 -45 57.5 -95t55.5 -113q99 -212 197 -487z" />
    <glyph glyph-name="W" unicode="W" horiz-adv-x="1154" 
d="M342 -6q17 50 50 131t68 165t68 160t45 102l2 -4q77 -185 122.5 -310.5t67.5 -243.5h63q5 18 11 36t15 41q15 40 32.5 81.5t34 80t32.5 75t28 63.5q35 76 63 128.5t49.5 85.5t37 51.5t31.5 35.5l1 1l-110 69q-14 -43 -22.5 -68t-17 -48.5t-20 -52t-34.5 -86.5
q-21 -50 -47 -112t-43 -101.5t-32 -73.5t-23 -53q-59 139 -103 258q-64 169 -97 286l-69 4q-11 -48 -37 -119t-58.5 -146.5t-67.5 -149.5t-60 -124q-5 9 -7 14q-28 59 -41 86t-26.5 57t-26.5 61.5t-32 80.5q-20 50 -31.5 82.5t-20.5 60.5t-15 51.5t-18 71.5l-113 -60
q28 -39 54 -86l2 -3q68 -124 143 -303q23 -54 37.5 -93.5t23.5 -68.5t14.5 -51.5t12.5 -55.5l1 -6h63z" />
    <glyph glyph-name="X" unicode="X" horiz-adv-x="849" 
d="M138 -16q52 72 139 166l158 172l186 -195q31 -37 50.5 -67t39.5 -67q2 -3 3 -5l99 83q-29 16 -59 39t-67 58q-41 38 -72.5 69t-51.5 52l-5 5l-75 78l120 124q3 3 7 8q45 46 66 67t37 36t30 26t34 24l-106 67q-19 -38 -39 -71.5t-46 -68t-61 -74.5t-84 -92l-63 66
q-9 9 -19.5 21t-39.5 45l-42 49q-29 33 -52.5 66t-40.5 60l-103 -94q16 -5 33.5 -13t41.5 -25q15 -10 28 -20t28 -24t36.5 -35.5t60.5 -61.5l15 -15l68 -70q-67 -72 -155 -157q-35 -34 -58.5 -55t-46.5 -38t-47 -32.5t-54 -30.5z" />
    <glyph glyph-name="Y" unicode="Y" horiz-adv-x="681" 
d="M390 0q-12 34 -21 81.5t-9 119.5q0 51 6 107v6l4 5q51 73 88 122.5t81 97.5q51 55 86 78t65 35l-95 79l-1 -2q-15 -24 -24.5 -39.5t-21.5 -32.5t-33 -44t-62 -79q-16 -21 -38 -51t-47 -64q-31 -43 -34 -47q-65 85 -105.5 141.5t-63.5 94t-33.5 59.5t-23.5 54l-1 2
l-105 -84q19 -12 39 -28.5t46 -43.5q32 -34 59 -66t48 -60l94 -130v-2q2 -46 2 -84q0 -136 -40 -225h140z" />
    <glyph glyph-name="Z" unicode="Z" horiz-adv-x="814" 
d="M746 121q-60 -19 -134.5 -31.5t-199.5 -12.5q-58 0 -164 2q28 55 68 120t110 162q19 26 45 61t58.5 77t72 91.5t72.5 88.5l-18 32q-77 -4 -148.5 -6.5t-134.5 -2.5q-53 0 -89.5 1t-60.5 3t-42 4.5t-37 5.5l4 -115q29 15 56 22t86 11q100 6 249 6l-122 -172
q-9 -13 -30.5 -43t-76.5 -105.5t-67 -91.5q-33 -44 -57 -75t-42 -53t-27 -32.5t-23 -26.5l31 -36q66 5 136 8t170 3q71 0 147 -3q95 -6 149 -15z" />
    <glyph glyph-name="bracketleft" unicode="[" horiz-adv-x="352" 
d="M305 10q-31 -1 -66.5 -2t-44.5 -1q-4 39 -7 95t-5 123.5t-3 117.5t-1 78q0 13 0.5 49t2 82t3.5 89.5t4 67.5h18l18 1q32 0 81 -3l-31 46q-46 -2 -69.5 -3t-48.5 -1l-24 1h-35q6 -52 10 -96t6.5 -97.5t3.5 -124t1 -164.5q0 -26 -0.5 -65.5t-1.5 -89t-2.5 -87.5t-3.5 -63
l113 2q9 0 32.5 -0.5t32.5 -1.5z" />
    <glyph glyph-name="bracketright" unicode="]" horiz-adv-x="352" 
d="M47 706q31 1 66.5 2t44.5 1q4 -38 7 -94.5t5 -124t3 -117.5t1 -78q0 -12 -0.5 -48.5t-2 -82.5t-3.5 -89.5t-4 -67.5h-18l-18 -1q-32 0 -81 3l31 -46q46 2 69.5 3t48.5 1l24 -1h35q-6 52 -10 96t-6.5 97.5t-3.5 124t-1 164.5q0 26 0.5 65.5t1.5 89t2.5 87.5t3.5 63
l-113 -2q-9 0 -32.5 0.5t-32.5 1.5z" />
    <glyph glyph-name="underscore" unicode="_" horiz-adv-x="500" 
d="M500 -125v50h-500v-50h500z" />
    <glyph glyph-name="grave" unicode="`" horiz-adv-x="442" 
d="M135 866q32 -41 64 -68t61 -44l47 19q-41 39 -61.5 68t-34.5 69z" />
    <glyph glyph-name="a" unicode="a" horiz-adv-x="836" 
d="M832 38q-14 14 -23 24t-20.5 24.5t-27 37t-34.5 52.5q-64 101 -113.5 193t-96.5 187q-30 61 -44 92.5t-25 67.5l-37 8q-34 -80 -79 -155l-239 -423q-22 -40 -38.5 -65.5t-32.5 -47.5l117 -55q1 31 5 52t15 55q20 59 38.5 96t42.5 73q39 3 105.5 4t132.5 1q33 0 64 -1
t52 -3q32 -53 64.5 -123t53.5 -150zM557 329q-95 -3 -133 -4t-79 -1q-11 0 -34 1h-37q9 19 24 47.5t32 60t40 72.5t43 73q4 -7 23.5 -40t47.5 -79q16 -27 33.5 -58.5t39.5 -71.5z" />
    <glyph glyph-name="b" unicode="b" horiz-adv-x="723" 
d="M283 -5q38 0 79 2.5t64 8.5q67 17 113.5 66.5t46.5 123.5q0 36 -11.5 63.5t-31.5 48t-42 34t-49 24.5q48 22 85.5 64.5t37.5 100.5q0 31 -13.5 63t-44 60.5t-81.5 46t-122 17.5q-33 0 -72 -4t-74 -8l-4 -1v-3q5 -33 8 -62.5t6 -76t5 -109t2 -142.5q0 -77 -2.5 -128
t-6.5 -83t-9 -53t-14 -50zM312 325q38 -1 67 -6.5t62 -22.5q28 -14 47 -39t19 -62q0 -58 -51.5 -94.5t-131.5 -36.5q-26 0 -61 4q-5 75 -8 147t-3 144q0 19 0.5 63t1 63t2 84t1.5 75l3 1q33 5 59 5q72 0 121 -33.5t49 -88.5q0 -35 -17.5 -61t-44.5 -43.5t-54.5 -28
t-61.5 -20.5l-2 -1z" />
    <glyph glyph-name="c" unicode="c" horiz-adv-x="520" 
d="M363 750q-5 -4 -47 -38q-25 -20 -51.5 -41.5t-34.5 -28.5q-78 -67 -109 -133t-31 -139q0 -81 37.5 -156.5t100.5 -143.5q5 -5 53 -52l33.5 -33.5l21.5 -21.5l71 99q-39 15 -76 36t-75 60q-45 46 -66.5 103t-21.5 109q0 60 29.5 120t94.5 103q30 19 58 31t60 24h1z" />
    <glyph glyph-name="d" unicode="d" horiz-adv-x="759" 
d="M165 -25q78 24 152 52.5t155 78t137 121.5t56 163q0 24 -6 54t-22 63.5t-46 68.5t-75 65q-74 50 -159.5 69t-201.5 25q14 -83 18.5 -170t4.5 -201q0 -16 -0.5 -47t-1.5 -81t-2.5 -93.5t-3.5 -78.5q-1 -31 -5 -83v-6zM252 656h1q60 -3 109 -14t100 -45q51 -33 84.5 -82.5
t33.5 -118.5q0 -46 -15.5 -86.5t-52 -79.5t-98 -77t-152.5 -75q-11 91 -13.5 183t-2.5 230q0 23 0.5 38.5t2.5 60.5q2 38 3 66z" />
    <glyph glyph-name="e" unicode="e" horiz-adv-x="672" 
d="M541 709q-107 -10 -199 -10q-34 0 -76 1q-23 1 -54 2t-49 3v-1q5 -31 8 -54.5t6 -62t5 -91.5t2 -118q0 -126 -4.5 -209.5t-22.5 -165.5q17 0 74 1q81 1 97 1q54 0 112.5 -4t93.5 -9l7 99q-95 -22 -270 -22q-6 41 -11 101t-7 166q42 -1 71 -2t49.5 -2t43.5 -2.5t48 -4.5
l5 89q-47 -7 -98.5 -9.5t-119.5 -2.5l1 32q0 14 0.5 50.5t1 56t1.5 40.5t2 50q9 1 37 2t37 1q63 0 111 -4t93 -16z" />
    <glyph glyph-name="f" unicode="f" horiz-adv-x="632" 
d="M491 409q-55 -7 -114.5 -10.5t-120.5 -5.5q0 96 0.5 150.5t2.5 89.5q34 2 47 2h30q74 0 115 -4.5t83 -12.5h1l5 94q-40 -5 -100.5 -8t-96.5 -3q-31 0 -69 1h-12q-29 1 -55.5 2t-44.5 2q12 -67 17 -148t5 -161q0 -43 -0.5 -105t-1.5 -89q-2 -80 -7 -123t-13 -81h134
q-23 71 -30.5 148t-9.5 182h38q106 -2 127 -2q14 -1 31.5 -1.5t34.5 -1.5z" />
    <glyph glyph-name="g" unicode="g" horiz-adv-x="686" 
d="M560 768q-68 -17 -140.5 -48t-140.5 -74q-93 -59 -142 -135.5t-49 -172.5q0 -34 9 -73.5t32 -81.5t65 -79t104 -62q37 -15 78.5 -25.5t78 -16t65.5 -8t52 -3.5q0 91 5.5 143.5t14.5 103.5l1 4h-139q25 -39 33 -74.5t9 -81.5q-82 0 -145.5 20.5t-105.5 56.5t-63 83t-21 99
q0 62 30.5 113.5t77 89t96.5 62t93 36.5q29 9 50 12t40 3q6 0 12 -1h12z" />
    <glyph glyph-name="h" unicode="h" horiz-adv-x="910" 
d="M758 0q-10 29 -15 58q-7 45 -10.5 106t-3.5 117q0 89 7.5 201.5t21.5 230.5l-120 12q14 -70 18 -142.5t4 -175.5q-88 -13 -184.5 -18t-222.5 -5q2 188 25 329h-129q12 -46 19 -101.5t10.5 -110.5t4.5 -90.5t1 -57.5q0 -32 -1 -71.5t-3.5 -85t-8 -98t-13.5 -98.5h138
q-24 60 -33.5 137.5t-9.5 175.5q87 6 157.5 9t147.5 3q39 0 59 -0.5t43 -1.5q0 -100 -5.5 -172.5t-26.5 -150.5h130z" />
    <glyph glyph-name="i" unicode="i" horiz-adv-x="444" 
d="M294 0q-8 25 -14 46.5t-10.5 56.5t-7.5 88.5t-3 129.5q0 74 10 220q5 63 10.5 99.5t14.5 76.5l-134 -11q7 -27 11 -48.5t8 -54.5t6 -79t2 -106q0 -34 -1.5 -96t-3.5 -99q-4 -82 -10.5 -130.5t-14.5 -90.5l-1 -2h138z" />
    <glyph glyph-name="j" unicode="j" horiz-adv-x="444" 
d="M157 709q29 -82 38.5 -171t9.5 -203q0 -88 -2 -143q-1 -44 -4.5 -80t-8.5 -52q-9 -29 -27.5 -50.5t-41.5 -34t-46.5 -18t-44.5 -5.5q-29 0 -61 8l15 -105l14 7t21 9l80 32q96 38 139 73.5t43 94.5v18q-1 18 -1 27v15q-3 86 -4 116t-1 77q0 176 15 398z" />
    <glyph glyph-name="k" unicode="k" horiz-adv-x="702" 
d="M271 0q-7 46 -11.5 100t-7.5 109.5t-4 92t-1 57.5q68 -61 104.5 -95.5t68 -68.5t61.5 -74.5t67 -97.5l106 68q-5 4 -55 46q-64 52 -69 57q-112 101 -202 192q32 32 65 61t81 63q29 21 51 34.5t37 21t28 12.5t32 11h1l-94 84q-32 -38 -56 -65t-52.5 -55t-64 -60.5
t-109.5 -99.5q0 57 1 94t3.5 69t7.5 69t13 86h-130v-1q11 -49 16.5 -76.5t10 -65.5t7.5 -85t3 -106q0 -77 -3 -137t-8 -101t-10 -69t-13 -64l-1 -6h127z" />
    <glyph glyph-name="l" unicode="l" horiz-adv-x="554" 
d="M147 715q10 -44 16 -99.5t9 -110t4 -102t1 -80.5q0 -31 -1 -86t-2.5 -99.5t-3.5 -91t-3 -59.5l19 -8q159 62 366 95l-34 104q-37 -20 -62 -32.5t-53 -24.5t-62.5 -26t-90.5 -36q0 13 -1.5 44.5t-1.5 60.5q-1 23 -1 64q0 106 3 184t7.5 131.5t9.5 87.5t12 73v1z" />
    <glyph glyph-name="m" unicode="m" horiz-adv-x="1130" 
d="M576 136q17 38 37 75t56 90q19 27 45 66q88 128 130 185q17 -68 32.5 -133.5t32 -142t31 -149t24.5 -138.5l109 26q-34 57 -64.5 167t-77.5 319q-2 8 -18 83q-8 42 -13.5 66.5t-7.5 31.5l-51 4q-33 -56 -69 -113.5t-71.5 -111.5t-70 -104t-59.5 -84q-9 18 -33.5 75
t-52.5 126t-55 138.5t-43 118.5h-55q-38 -110 -72.5 -197.5t-71.5 -172.5q-20 -49 -35.5 -83.5t-34.5 -73.5q-41 -84 -96 -170l115 -56q16 76 41 159q9 30 26 79t41 113t52.5 135t56.5 137q18 -42 42.5 -101.5t50 -124.5t50 -130.5t38.5 -108.5h41z" />
    <glyph glyph-name="n" unicode="n" horiz-adv-x="945" 
d="M277 -19q-8 37 -14 83.5t-9 97.5t-4.5 99.5t-1.5 92.5q0 64 3 144l1 16q24 -18 56 -45t61 -53.5t58 -54.5t62 -60l1 -1q57 -55 93.5 -94t60.5 -67.5t37 -47t25 -37.5q27 8 61 27h1q-2 47 -2.5 105t-0.5 137q0 57 3 140.5t8 144.5q4 40 9 69t12 57l-122 12
q8 -36 11.5 -55.5t7 -52t5.5 -75t2 -99.5q0 -22 -0.5 -51.5t-2 -72t-3 -79t-2.5 -51.5q-134 128 -213.5 204t-122.5 118.5t-70 71t-69 75.5l-1 1q-8 -3 -24.5 -11t-26.5 -14q6 -30 10 -62q3 -26 5 -80.5t2 -126.5q0 -58 -1.5 -117.5t-4 -113t-7.5 -99.5t-11 -75h118z" />
    <glyph glyph-name="o" unicode="o" 
d="M439 -1q81 0 153 27.5t126.5 77t85 116.5t30.5 143q0 68 -25 130.5t-73.5 111.5t-118 77t-154.5 28q-78 0 -151 -29t-129 -83q-36 -34 -58 -69t-33 -67t-14.5 -58t-3.5 -52q0 -90 37 -156.5t89 -110.5q49 -42 112.5 -64t126.5 -22zM451 72q-65 0 -120 24t-93 64.5
t-58.5 91.5t-20.5 104t21 103.5t61 90.5t97 63.5t125 23.5q70 0 124 -25.5t89.5 -67.5t53 -91.5t17.5 -96.5q0 -65 -27 -118.5t-71.5 -90.5t-96.5 -56t-101 -19z" />
    <glyph glyph-name="p" unicode="p" horiz-adv-x="666" 
d="M295 0q-10 30 -18.5 68t-14.5 104q-9 104 -9 223q0 60 1.5 126t4.5 121q5 0 10 1q32 3 57 3q75 0 119 -32.5t44 -96.5q0 -40 -18 -70.5t-45.5 -49.5t-52.5 -29t-53 -19l1 -1q26 -20 50 -35t54 -25q23 17 44.5 36.5t42.5 47.5t35 64.5t14 77.5q0 34 -9 61.5t-22.5 47
t-27.5 32t-29 22.5q-39 24 -84.5 32.5t-97.5 8.5q-25 0 -61 -3.5t-60 -7.5q15 -168 15 -348q0 -69 -1 -115.5t-5 -86t-10.5 -76t-18.5 -81.5h145z" />
    <glyph glyph-name="q" unicode="q" 
d="M527 -168q-24 67 -25 172q80 13 142.5 47.5t105 84t63.5 108t21 119.5q0 68 -25 130.5t-73.5 111.5t-117.5 77t-155 28q-91 0 -160 -32t-120 -80q-36 -34 -58 -69t-33 -67t-14.5 -58.5t-3.5 -51.5q0 -62 19 -113.5t47 -88t52 -58t43 -33.5q32 -21 80 -39t112 -21v-1
q-2 -26 -9 -70t-24 -96h133zM451 72q-65 0 -120 24t-93 64.5t-58.5 91.5t-20.5 104t21 103.5t61 90.5t97 63.5t125 23.5q70 0 124 -25.5t89.5 -67.5t53 -91.5t17.5 -96.5q0 -65 -27 -118.5t-71.5 -90.5t-96.5 -56t-101 -19z" />
    <glyph glyph-name="r" unicode="r" horiz-adv-x="739" 
d="M291 0q-10 30 -18.5 68t-14.5 104q-9 104 -9 223q0 60 1.5 125.5t4.5 120.5l33 3t24 1q43 0 73.5 -10t49 -27t26.5 -36.5t8 -38.5q0 -27 -14 -55.5t-39 -46.5q-20 -14 -39.5 -21.5t-45.5 -14.5v0q-4 -15 -5 -26q10 -5 19 -10.5t21.5 -16t30.5 -30t41 -47.5
q55 -67 87.5 -121.5t62.5 -116.5l119 73q-49 43 -85.5 77t-66.5 64.5t-56 58.5t-63 69q22 13 41 26t37.5 32.5t30.5 45.5t12 58q0 16 -4.5 35t-15.5 39.5t-32 40.5t-53 35q-42 20 -87 25.5t-87 5.5q-25 0 -41.5 -1t-70.5 -6q15 -159 15 -346q0 -67 -1.5 -115t-5 -86.5
t-10.5 -77t-18 -80.5h145z" />
    <glyph glyph-name="s" unicode="s" horiz-adv-x="444" 
d="M294 754q-39 -28 -70 -52.5t-57.5 -55t-42.5 -66.5t-16 -77q0 -36 11.5 -63.5t42.5 -70.5l2 -3q31 -45 45.5 -66.5t23.5 -39t12.5 -33t3.5 -36.5q0 -56 -36.5 -88.5t-110.5 -58.5l82 -94l7 7q55 61 79.5 90t41 53t23 45.5t6.5 47.5q0 35 -15 65t-59 90q-42 59 -60.5 93.5
t-18.5 73.5q0 30 13.5 52t36 37.5t45.5 24.5t60 22h1z" />
    <glyph glyph-name="t" unicode="t" horiz-adv-x="648" 
d="M401 0q-22 74 -31 168t-9 199q0 161 7 262q65 0 107.5 -1t73.5 -4.5t53.5 -9.5t43.5 -16v110q-53 -8 -111 -12t-166 -4q-60 0 -103.5 1t-82.5 3t-76.5 5l-87.5 7v-110q50 15 108 22.5t160 8.5q1 -24 2 -49t2 -74q1 -69 1 -103t-1.5 -89.5t-2.5 -103.5l-1 -20
q-4 -77 -11.5 -117.5t-18.5 -71.5v-1h144z" />
    <glyph glyph-name="u" unicode="u" horiz-adv-x="927" 
d="M91 678q11 -25 18.5 -41.5t15.5 -39t18.5 -57t26.5 -91.5q5 -17 16 -60t25 -102q16 -61 16 -62l1 -3q14 -53 26 -88.5t33 -68.5t55 -53.5t83 -20.5q52 0 98.5 25t80.5 68q13 17 24.5 38t24.5 50.5t26.5 64t39.5 102.5q39 102 57 149t31.5 79.5t25.5 59t31 64.5l-129 41
q0 -6 1 -22v-13q0 -5 -1 -14v-15q-1 -23 -8 -57.5t-17.5 -73.5t-22 -77t-24.5 -75q-33 -94 -57 -152t-47.5 -94.5t-50.5 -53t-62 -16.5q-36 0 -61.5 18t-44.5 55.5t-36.5 96t-40.5 156.5q-13 56 -20.5 97t-11.5 75t-5.5 65.5t-1.5 75.5z" />
    <glyph glyph-name="v" unicode="v" horiz-adv-x="681" 
d="M351 -10l50 118q27 65 63 143t75 157t79 154.5t71 127.5l-120 49q-7 -52 -20 -101t-37.5 -111.5t-65.5 -153.5t-109 -232q-19 38 -42 88t-46 103t-43 102t-38 95l-1 4q-10 26 -16 43t-14 42t-15 55t-11 55l-119 -45q31 -45 57.5 -95t55.5 -113q99 -212 197 -487z" />
    <glyph glyph-name="w" unicode="w" horiz-adv-x="1154" 
d="M342 -6q17 50 50 131t68 165t68 160t45 102l2 -4q77 -185 122.5 -310.5t67.5 -243.5h63q5 18 11 36t15 41q15 40 32.5 81.5t34 80t32.5 75t28 63.5q35 76 63 128.5t49.5 85.5t37 51.5t31.5 35.5l1 1l-110 69q-14 -43 -22.5 -68t-17 -48.5t-20 -52t-34.5 -86.5
q-21 -50 -47 -112t-43 -101.5t-32 -73.5t-23 -53q-59 139 -103 258q-64 169 -97 286l-69 4q-11 -48 -37 -119t-58.5 -146.5t-67.5 -149.5t-60 -124q-5 9 -7 14q-28 59 -41 86t-26.5 57t-26.5 61.5t-32 80.5q-20 50 -31.5 82.5t-20.5 60.5t-15 51.5t-18 71.5l-113 -60
q28 -39 54 -86l2 -3q68 -124 143 -303q23 -54 37.5 -93.5t23.5 -68.5t14.5 -51.5t12.5 -55.5l1 -6h63z" />
    <glyph glyph-name="x" unicode="x" horiz-adv-x="849" 
d="M138 -16q52 72 139 166l158 172l186 -195q31 -37 50.5 -67t39.5 -67q2 -3 3 -5l99 83q-29 16 -59 39t-67 58q-41 38 -72.5 69t-51.5 52l-5 5l-75 78l120 124q3 3 7 8q45 46 66 67t37 36t30 26t34 24l-106 67q-19 -38 -39 -71.5t-46 -68t-61 -74.5t-84 -92l-63 66
q-9 9 -19.5 21t-39.5 45l-42 49q-29 33 -52.5 66t-40.5 60l-103 -94q16 -5 33.5 -13t41.5 -25q15 -10 28 -20t28 -24t36.5 -35.5t60.5 -61.5l15 -15l68 -70q-67 -72 -155 -157q-35 -34 -58.5 -55t-46.5 -38t-47 -32.5t-54 -30.5z" />
    <glyph glyph-name="y" unicode="y" horiz-adv-x="681" 
d="M390 0q-12 34 -21 81.5t-9 119.5q0 51 6 107v6l4 5q51 73 88 122.5t81 97.5q51 55 86 78t65 35l-95 79l-1 -2q-15 -24 -24.5 -39.5t-21.5 -32.5t-33 -44t-62 -79q-16 -21 -38 -51t-47 -64q-31 -43 -34 -47q-65 85 -105.5 141.5t-63.5 94t-33.5 59.5t-23.5 54l-1 2
l-105 -84q19 -12 39 -28.5t46 -43.5q32 -34 59 -66t48 -60l94 -130v-2q2 -46 2 -84q0 -136 -40 -225h140z" />
    <glyph glyph-name="z" unicode="z" horiz-adv-x="814" 
d="M746 121q-60 -19 -134.5 -31.5t-199.5 -12.5q-58 0 -164 2q28 55 68 120t110 162q19 26 45 61t58.5 77t72 91.5t72.5 88.5l-18 32q-77 -4 -148.5 -6.5t-134.5 -2.5q-53 0 -89.5 1t-60.5 3t-42 4.5t-37 5.5l4 -115q29 15 56 22t86 11q100 6 249 6l-122 -172
q-9 -13 -30.5 -43t-76.5 -105.5t-67 -91.5q-33 -44 -57 -75t-42 -53t-27 -32.5t-23 -26.5l31 -36q66 5 136 8t170 3q71 0 147 -3q95 -6 149 -15z" />
    <glyph glyph-name="braceleft" unicode="{" horiz-adv-x="333" 
d="M289 753h-60q-19 0 -39.5 -6t-35.5 -22t-21.5 -37t-6.5 -59v-121q0 -19 -3 -39.5t-11 -40.5t-24.5 -34t-42.5 -15v-43q28 -1 45 -16.5t24.5 -37.5t9.5 -40.5t2 -33.5v-121q0 -20 2.5 -38t12 -38.5t31 -34t57.5 -13.5h60v44h-40q-40 0 -49.5 24.5t-9.5 84.5v109
q0 55 -26 88.5t-55 43.5v2q8 3 21 11t27 23t23.5 40t9.5 58v109q0 60 9.5 84.5t49.5 24.5h40v44z" />
    <glyph glyph-name="braceright" unicode="}" horiz-adv-x="333" 
d="M41 -37h60q19 0 39.5 6t35.5 22t21.5 37.5t6.5 58.5v121q0 19 3 39.5t11 40.5t24.5 34t42.5 15v43q-28 1 -45 16.5t-24.5 37.5t-9.5 40.5t-2 33.5v121q0 20 -2 38.5t-12 38.5t-31.5 33.5t-57.5 13.5h-60v-44h40q40 0 49.5 -24.5t9.5 -84.5v-109q0 -55 26 -88.5t55 -43.5
v-2q-8 -3 -21 -11t-27 -23t-23.5 -40t-9.5 -58v-109q0 -60 -9.5 -84.5t-49.5 -24.5h-40v-44z" />
    <glyph glyph-name="exclamdown" unicode="&#xa1;" horiz-adv-x="389" 
d="M135 -5l121 37q-12 35 -19 91.5t-11 120.5t-5 120t-2 120l-39 3q-9 -204 -20 -308.5t-35 -169.5zM198 726q-18 -13 -36 -32t-29 -34q14 -22 27.5 -36.5t33.5 -27.5q17 10 32.5 23.5t37.5 38.5q-16 24 -29.5 37.5t-36.5 30.5z" />
    <glyph glyph-name="cent" unicode="&#xa2;" horiz-adv-x="499" 
d="M425 118q-28 -24 -63 -42.5t-83 -18.5q-65 0 -100 42.5t-35 110.5q0 43 14.5 79t40 63t59.5 41t72 14q34 0 82 -16l3 -1l5 101q-32 -1 -55.5 -3.5t-55.5 -9.5q0 34 1.5 56.5t6.5 41.5h-58q6 -19 7.5 -35t2.5 -72v-3q-32 -13 -61 -29t-58 -44q-40 -40 -62 -91.5
t-22 -107.5q0 -85 53 -138t160 -57q-1 -29 -3 -49t-8 -45h54q-5 36 -5 94q27 2 62.5 8t67.5 17z" />
    <glyph glyph-name="sterling" unicode="&#xa3;" horiz-adv-x="591" 
d="M532 81q-60 16 -105.5 24.5t-90.5 8.5q-15 0 -36.5 -1.5t-46.5 -6.5q9 16 13 32.5t4 46.5q0 41 -4.5 77.5t-12.5 81.5q52 0 92.5 -3t79.5 -10l13 67q-9 -1 -33 -3t-53.5 -4t-58.5 -3.5t-47 -1.5q-6 41 -9.5 68t-3.5 55q0 27 6.5 50.5t21.5 40.5q19 21 45 29.5t52 8.5
q30 0 54 -8t51 -21l3 -2l28 93l-3 1q-48 10 -90 10q-53 0 -98 -15.5t-78 -44.5t-51 -67t-18 -81q0 -29 4 -56.5t11 -58.5q-26 1 -45.5 3t-56.5 7v-69q36 5 57 7.5t55 5.5q19 -78 26.5 -116.5t7.5 -69.5q0 -43 -31 -59t-110 -30q-3 -1 -5 -1q-4 -12 -4 -23q0 -39 41 -60
q22 10 36 25l1 2q25 26 47 38.5t65 12.5q36 0 74 -11q39 -11 70.5 -25t59.5 -29z" />
    <glyph glyph-name="yen" unicode="&#xa5;" horiz-adv-x="681" 
d="M390 0q-16 48 -23 100.5t-7 117.5h14q34 -1 62.5 -1.5t47.5 -1t42 -2t61 -4.5v61q-11 0 -30 -0.5t-61 -2.5q-36 -1 -91 -3l-43 -1q0 7 1 9q0 10 1 19t2 23l19 27q66 -1 99 -2q18 -1 31 -1.5t57 -3.5q11 -1 15 -1v61q-5 0 -24 -1q-40 -2 -67 -3l-78 -2q57 82 121 150
q51 56 86 79t65 35l-95 79q-16 -27 -25.5 -41.5t-19 -28.5t-28.5 -38.5t-44 -56.5l-11 -15q-19 -24 -27 -34t-20 -26t-32.5 -44t-42.5 -60h-23q-61 81 -99.5 135.5t-60.5 90.5t-32.5 58t-22.5 52l-105 -84q19 -12 39 -28.5t46 -43.5q32 -33 56.5 -62.5t49.5 -62.5l1 -1
l38 -53q-20 0 -59.5 1t-49.5 2q-24 0 -63 2l1 -61q3 0 90 4q35 2 68.5 3.5t46.5 1.5l22 -30q1 -7 2 -35v-13q-18 0 -35 1q-31 0 -73 1t-55 1.5t-27 1t-40 1.5l1 -61q7 0 33 2q22 1 62 3q48 3 120 5h14q-2 -133 -40 -218h140z" />
    <glyph glyph-name="dieresis" unicode="&#xa8;" horiz-adv-x="442" 
d="M147 817q-13 22 -27.5 33t-38.5 24q-17 -12 -34.5 -29.5t-30.5 -36.5q14 -19 27.5 -31.5t38.5 -22.5q16 11 33.5 26.5t31.5 36.5zM426 828q-21 17 -38 26t-40 16l-2 -1q-15 -11 -28.5 -24t-30.5 -38q17 -17 33 -28.5t48 -24.5q18 18 29 32t29 42z" />
    <glyph glyph-name="copyright" unicode="&#xa9;" horiz-adv-x="899" 
d="M94 356q0 -73 27.5 -138t77 -114.5t114.5 -76.5t137 -27q73 0 138 27.5t114 76.5t76.5 114.5t27.5 137.5q0 73 -27.5 138t-76.5 114t-114 76.5t-138 27.5q-72 0 -137 -27t-114 -76t-77 -114.5t-28 -138.5zM160 356q0 65 22 120t61.5 95t92.5 61.5t114 21.5t114.5 -21.5
t93 -61.5t61 -95t21.5 -120t-22 -119.5t-61 -94.5t-92.5 -61.5t-114.5 -21.5t-114 21.5t-92.5 61.5t-61.5 94.5t-22 119.5zM640 430q-7 44 -27 73.5t-46.5 46t-54.5 23t-55 6.5q-95 0 -152 -62.5t-57 -158.5q0 -52 16.5 -94t46 -71t68 -44.5t80.5 -15.5q22 0 47 5.5t51 21
t48.5 46t34.5 78.5h-58q-12 -47 -46 -73t-76 -26q-31 0 -59.5 14t-49.5 39t-32.5 56t-11.5 64q0 68 41 118t110 50q47 0 80 -25.5t44 -70.5h58z" />
    <glyph glyph-name="ordfeminine" unicode="&#xaa;" horiz-adv-x="518" 
d="M520 368q-27 26 -64.5 81.5t-74 119.5t-64.5 120t-36 81l-26 5q-24 -55 -49 -92l-148 -250q-15 -25 -23.5 -37.5t-18.5 -26.5l-3 -4l77 -34q1 43 20 87t42 77q25 1 72 2t79 1q14 0 30.5 -0.5t35.5 -1.5q22 -35 41 -75t32 -87zM344 541q-46 -1 -76.5 -1.5t-93.5 -0.5
q13 25 38 68.5t46 76.5l21 -35q15 -24 35.5 -58t29.5 -50z" />
    <glyph glyph-name="guillemotleft" unicode="&#xab;" horiz-adv-x="612" 
d="M289 591l-254 -219l259 -226l34 33q-56 55 -98.5 101t-76.5 94q31 44 75.5 90t94.5 90zM530 591l-254 -219l260 -226l34 33q-56 54 -98.5 100.5t-77.5 94.5q31 44 75.5 90t94.5 90z" />
    <glyph glyph-name="registered" unicode="&#xae;" horiz-adv-x="490" 
d="M207 518h36l56 -89h35l-59 90q29 5 40.5 21.5t11.5 39.5q0 15 -5.5 28t-20.5 21q-17 9 -44 9h-79v-209h29v89zM207 612h44q21 0 34 -7t13 -24q0 -23 -15 -30t-43 -7h-33v68zM67 534q0 -37 14 -69.5t38.5 -57t57 -38t68.5 -13.5q37 0 69.5 13.5t57 38t38 57t13.5 69.5
q0 36 -13.5 68.5t-38 57.5t-57 38.5t-69.5 13.5q-36 0 -68.5 -14t-57 -38t-38.5 -57t-14 -69zM100 534q0 65 41.5 107t103.5 42q63 0 104 -41.5t41 -107.5q0 -65 -41 -107t-104 -42q-62 0 -103.5 42t-41.5 107z" />
    <glyph glyph-name="macron" unicode="&#xaf;" horiz-adv-x="442" 
d="M103 801l14 2q35 4 64.5 6t69.5 2q32 0 48.5 -1t39.5 -4v54q-2 0 -6 -1q-61 -6 -122 -6q-31 0 -54 1.5t-54 5.5v-59z" />
    <glyph glyph-name="twosuperior" unicode="&#xb2;" horiz-adv-x="436" 
d="M396 327q-18 -9 -34 -14t-46 -8q-25 -2 -56.5 -3t-112.5 -3q80 69 127 120q40 44 54.5 75.5t14.5 60.5q0 19 -8.5 39.5t-26.5 38.5t-46 29t-65 11q-20 0 -51 -4.5t-76 -16.5l13 -74l24 -1q15 22 35 37t59 15q38 0 57 -23.5t19 -53.5q0 -28 -18.5 -61t-49 -68t-69.5 -70.5
t-88 -77.5l7 -30q104 8 194 8q25 0 67 -2q32 -1 61 -6z" />
    <glyph glyph-name="threesuperior" unicode="&#xb3;" horiz-adv-x="388" 
d="M71 221l4 1q53 16 89 30t74 39q37 24 60 54.5t23 67.5q0 12 -4 26.5t-16 30.5t-37 31t-63 25l24 24l22.5 22.5t24.5 24t27.5 27t24.5 25.5l-8 26q-110 -8 -164 -8q-40 0 -66.5 3t-50.5 7l3 -80q17 8 29 12t30 6.5t44.5 4t88.5 3.5q-11 -12 -22 -22q-51 -52 -59 -60
t-14.5 -13t-17.5 -13l6 -23q42 -1 69 -11t40 -23.5t17 -26.5t4 -25q0 -26 -18.5 -48.5t-50.5 -41t-72 -31t-81 -17.5z" />
    <glyph glyph-name="acute" unicode="&#xb4;" horiz-adv-x="442" 
d="M181 754q20 23 51 49t82 56l-72 51l-114 -143z" />
    <glyph glyph-name="mu" unicode="&#xb5;" horiz-adv-x="1130" 
d="M576 136q17 38 37 75t56 90q19 27 45 66q88 128 130 185q17 -68 32.5 -133.5t32 -142t31 -149t24.5 -138.5l109 26q-34 57 -64.5 167t-77.5 319q-2 8 -18 83q-8 42 -13.5 66.5t-7.5 31.5l-51 4q-33 -56 -69 -113.5t-71.5 -111.5t-70 -104t-59.5 -84q-9 18 -33.5 75
t-52.5 126t-55 138.5t-43 118.5h-55q-38 -110 -72.5 -197.5t-71.5 -172.5q-20 -49 -35.5 -83.5t-34.5 -73.5q-41 -84 -96 -170l115 -56q16 76 41 159q9 30 26 79t41 113t52.5 135t56.5 137q18 -42 42.5 -101.5t50 -124.5t50 -130.5t38.5 -108.5h41z" />
    <glyph glyph-name="periodcentered" unicode="&#xb7;" horiz-adv-x="277" 
d="M138 299q18 14 36 32.5t30 33.5q-14 22 -27.5 36.5t-33.5 27.5q-15 -9 -31 -22.5t-39 -39.5q16 -23 29.5 -37t35.5 -31z" />
    <glyph glyph-name="periodcentered" unicode="&#x2219;" horiz-adv-x="277" 
d="M138 299q18 14 36 32.5t30 33.5q-14 22 -27.5 36.5t-33.5 27.5q-15 -9 -31 -22.5t-39 -39.5q16 -23 29.5 -37t35.5 -31z" />
    <glyph glyph-name="cedilla" unicode="&#xb8;" horiz-adv-x="442" 
d="M175 -101q25 -15 31.5 -23t6.5 -16q0 -14 -11.5 -31t-32.5 -41l28 -22q11 11 23 24.5t24.5 29.5t20.5 31.5t8 27.5q0 20 -18.5 36t-46.5 32z" />
    <glyph glyph-name="onesuperior" unicode="&#xb9;" horiz-adv-x="344" 
d="M248 245q-7 31 -9.5 44.5t-4.5 30t-2.5 39.5t-0.5 58q0 93 1 155t4 107l-18 8q-19 -13 -40.5 -27t-47 -30t-52.5 -30.5t-49 -24.5l22 -65q27 28 52.5 48t75.5 48v-4q2 -39 2 -93q0 -60 -2 -103t-5.5 -72t-7 -46.5t-9.5 -38.5l-1 -4h92z" />
    <glyph glyph-name="ordmasculine" unicode="&#xba;" horiz-adv-x="563" 
d="M272 344q51 0 96 16.5t79 45.5t53 69t19 85q0 41 -15.5 78t-46 66t-73.5 45.5t-97 16.5q-46 0 -90 -15.5t-78.5 -44.5t-54.5 -68t-20 -84q0 -43 18 -82t50 -67.5t73.5 -44.5t86.5 -16zM280 390q-41 0 -74 14t-57 38t-36 53.5t-12 60.5t13 60.5t37 53t59 37.5t77 14
q43 0 76 -15t55 -40t32.5 -53.5t10.5 -56.5q0 -38 -16.5 -69t-44 -53t-59 -33t-61.5 -11z" />
    <glyph glyph-name="guillemotright" unicode="&#xbb;" horiz-adv-x="612" 
d="M315 146l255 219l-260 226l-34 -33q55 -53 98 -100t78 -96q-30 -43 -74.5 -88.5t-95.5 -90.5zM74 146l254 219l-259 226l-34 -33q55 -53 98 -100t78 -96q-30 -43 -74.5 -88.5t-95.5 -90.5z" />
    <glyph glyph-name="questiondown" unicode="&#xbf;" horiz-adv-x="518" 
d="M287 504l-4 -40q-7 -7 -27.5 -28t-29.5 -30q-26 -26 -40.5 -41t-16.5 -17q-34 -42 -54.5 -80t-20.5 -80q0 -41 21 -70t59.5 -49.5t88.5 -36t138 -37.5l24 107q-38 -6 -63.5 -8.5t-39.5 -2.5q-67 0 -107.5 34t-40.5 76q0 32 22 72t79 107q3 3 35 39q52 57 58 64l-53 33z
M319 726q-18 -15 -36.5 -33.5t-28.5 -32.5q14 -22 27.5 -36.5t33.5 -27.5q16 9 31.5 22.5t38.5 39.5q-16 24 -29.5 37.5t-36.5 30.5z" />
    <glyph glyph-name="Agrave" unicode="&#xc0;" horiz-adv-x="836" 
d="M332 866q32 -41 64 -68t61 -44l47 19q-41 39 -61.5 68t-34.5 69zM832 38q-14 14 -23 24t-20.5 24.5t-27 37t-34.5 52.5q-64 101 -113.5 193t-96.5 187q-30 61 -44 92.5t-25 67.5l-37 8q-34 -80 -79 -155l-239 -423q-22 -40 -38.5 -65.5t-32.5 -47.5l117 -55q1 31 5 52
t15 55q20 59 38.5 96t42.5 73q39 3 105.5 4t132.5 1q33 0 64 -1t52 -3q32 -53 64.5 -123t53.5 -150zM557 329q-95 -3 -133 -4t-79 -1q-11 0 -34 1h-37q9 19 24 47.5t32 60t40 72.5t43 73q4 -7 23.5 -40t47.5 -79q16 -27 33.5 -58.5t39.5 -71.5z" />
    <glyph glyph-name="Aacute" unicode="&#xc1;" horiz-adv-x="836" 
d="M393 754q20 23 51 49t82 56l-72 51l-114 -143zM832 38q-14 14 -23 24t-20.5 24.5t-27 37t-34.5 52.5q-64 101 -113.5 193t-96.5 187q-30 61 -44 92.5t-25 67.5l-37 8q-34 -80 -79 -155l-239 -423q-22 -40 -38.5 -65.5t-32.5 -47.5l117 -55q1 31 5 52t15 55q20 59 38.5 96
t42.5 73q39 3 105.5 4t132.5 1q33 0 64 -1t52 -3q32 -53 64.5 -123t53.5 -150zM557 329q-95 -3 -133 -4t-79 -1q-11 0 -34 1h-37q9 19 24 47.5t32 60t40 72.5t43 73q4 -7 23.5 -40t47.5 -79q16 -27 33.5 -58.5t39.5 -71.5z" />
    <glyph glyph-name="Acircumflex" unicode="&#xc2;" horiz-adv-x="836" 
d="M567 782q-23 32 -52 65t-82 79l-164 -139l63 -31q21 30 38.5 48.5t55.5 52.5l3 3q23 -22 45 -48.5t37 -57.5zM832 38q-14 14 -23 24t-20.5 24.5t-27 37t-34.5 52.5q-64 101 -113.5 193t-96.5 187q-30 61 -44 92.5t-25 67.5l-37 8q-34 -80 -79 -155l-239 -423
q-22 -40 -38.5 -65.5t-32.5 -47.5l117 -55q1 31 5 52t15 55q20 59 38.5 96t42.5 73q39 3 105.5 4t132.5 1q33 0 64 -1t52 -3q32 -53 64.5 -123t53.5 -150zM557 329q-95 -3 -133 -4t-79 -1q-11 0 -34 1h-37q9 19 24 47.5t32 60t40 72.5t43 73q4 -7 23.5 -40t47.5 -79
q16 -27 33.5 -58.5t39.5 -71.5z" />
    <glyph glyph-name="Atilde" unicode="&#xc3;" horiz-adv-x="836" 
d="M569 896q-28 -36 -47.5 -52.5t-34.5 -16.5q-12 0 -22 6t-30 23q-19 17 -33 25t-33 8q-27 0 -58 -22.5t-79 -76.5l40 -36q28 42 50.5 59t37.5 17q11 0 20 -5.5t31 -23.5l4 -3q23 -19 37 -26.5t29 -7.5t33.5 9.5t50.5 44.5l39 41zM832 38q-14 14 -23 24t-20.5 24.5t-27 37
t-34.5 52.5q-64 101 -113.5 193t-96.5 187q-30 61 -44 92.5t-25 67.5l-37 8q-34 -80 -79 -155l-239 -423q-22 -40 -38.5 -65.5t-32.5 -47.5l117 -55q1 31 5 52t15 55q20 59 38.5 96t42.5 73q39 3 105.5 4t132.5 1q33 0 64 -1t52 -3q32 -53 64.5 -123t53.5 -150zM557 329
q-95 -3 -133 -4t-79 -1q-11 0 -34 1h-37q9 19 24 47.5t32 60t40 72.5t43 73q4 -7 23.5 -40t47.5 -79q16 -27 33.5 -58.5t39.5 -71.5z" />
    <glyph glyph-name="Adieresis" unicode="&#xc4;" horiz-adv-x="836" 
d="M344 817q-13 22 -27.5 33t-38.5 24q-17 -12 -34.5 -29.5t-30.5 -36.5q14 -19 27.5 -31.5t38.5 -22.5q16 11 33.5 26.5t31.5 36.5zM623 828q-21 17 -38 26t-40 16l-2 -1q-15 -11 -28.5 -24t-30.5 -38q17 -17 33 -28.5t48 -24.5q18 18 29 32t29 42zM832 38q-14 14 -23 24
t-20.5 24.5t-27 37t-34.5 52.5q-64 101 -113.5 193t-96.5 187q-30 61 -44 92.5t-25 67.5l-37 8q-34 -80 -79 -155l-239 -423q-22 -40 -38.5 -65.5t-32.5 -47.5l117 -55q1 31 5 52t15 55q20 59 38.5 96t42.5 73q39 3 105.5 4t132.5 1q33 0 64 -1t52 -3q32 -53 64.5 -123
t53.5 -150zM557 329q-95 -3 -133 -4t-79 -1q-11 0 -34 1h-37q9 19 24 47.5t32 60t40 72.5t43 73q4 -7 23.5 -40t47.5 -79q16 -27 33.5 -58.5t39.5 -71.5z" />
    <glyph glyph-name="Aring" unicode="&#xc5;" horiz-adv-x="836" 
d="M430 947q-62 0 -92.5 -31t-30.5 -70q0 -45 35 -73.5t89 -28.5q49 0 81.5 28t32.5 73q0 50 -33 76t-82 26zM426 910q44 0 62.5 -20.5t18.5 -44.5t-19.5 -45t-55.5 -21t-60 19t-24 48q0 25 20 44.5t58 19.5zM832 38q-14 14 -23 24t-20.5 24.5t-27 37t-34.5 52.5
q-64 101 -113.5 193t-96.5 187q-30 61 -44 92.5t-25 67.5l-37 8q-34 -80 -79 -155l-239 -423q-22 -40 -38.5 -65.5t-32.5 -47.5l117 -55q1 31 5 52t15 55q20 59 38.5 96t42.5 73q39 3 105.5 4t132.5 1q33 0 64 -1t52 -3q32 -53 64.5 -123t53.5 -150zM557 329q-95 -3 -133 -4
t-79 -1q-11 0 -34 1h-37q9 19 24 47.5t32 60t40 72.5t43 73q4 -7 23.5 -40t47.5 -79q16 -27 33.5 -58.5t39.5 -71.5z" />
    <glyph glyph-name="AE" unicode="&#xc6;" horiz-adv-x="1033" 
d="M106 -14q4 25 10.5 49.5t21.5 63t42.5 92t69.5 122.5q24 1 55 2q20 1 32 1q3 0 27 0.5t64 1.5q71 2 85 2l21 -86q16 -61 27 -116.5t16 -112.5q34 3 68 5t82 2q75 0 118 -6q36 -4 67 -11l14 102q-48 -11 -105 -16t-115 -5q-9 0 -26 1h-21q-31 83 -39 109l-39 134
q83 0 114 -1q20 0 46.5 -1.5t65.5 -3.5l16 95q-40 -9 -68.5 -14.5t-54.5 -8.5t-57 -4.5t-76 -3.5q-30 122 -49 259q9 0 36 1q37 1 53 1q19 0 53 -1q33 -1 38 -1q72 -2 111.5 -10t77.5 -22v0l-7 107l-10 -1q-46 -5 -85.5 -7.5t-110.5 -2.5q-47 0 -122 2l-34 1q-27 1 -60 3
q-25 1 -43 2q-8 -18 -16.5 -34.5t-28.5 -48.5q-15 -25 -23.5 -37.5t-19 -29.5t-48 -75.5t-74.5 -115.5l-4 -7q-55 -85 -87.5 -135t-50.5 -76t-30.5 -42.5t-28.5 -34.5zM444 619l55 -241q-57 0 -110.5 1.5t-99.5 3.5z" />
    <glyph glyph-name="Ccedilla" unicode="&#xc7;" horiz-adv-x="520" 
d="M363 750q-5 -4 -47 -38q-25 -20 -51.5 -41.5t-34.5 -28.5q-78 -67 -109 -133t-31 -139q0 -81 37.5 -156.5t100.5 -143.5q5 -5 53 -52l33.5 -33.5l21.5 -21.5l71 99q-39 15 -76 36t-75 60q-45 46 -66.5 103t-21.5 109q0 60 29.5 120t94.5 103q30 19 58 31t60 24h1z
M293 -101q25 -15 31.5 -23t6.5 -16q0 -14 -10.5 -30t-31.5 -41l-1 -1l27 -22q11 11 23.5 24.5t25 29.5t20.5 31.5t8 27.5q0 20 -19 36t-47 32z" />
    <glyph glyph-name="Egrave" unicode="&#xc8;" horiz-adv-x="672" 
d="M250 866q32 -41 64 -68t61 -44l47 19q-41 39 -61.5 68t-34.5 69zM541 709q-107 -10 -199 -10q-34 0 -76 1q-23 1 -54 2t-49 3v-1q5 -31 8 -54.5t6 -62t5 -91.5t2 -118q0 -126 -4.5 -209.5t-22.5 -165.5q17 0 74 1q81 1 97 1q54 0 112.5 -4t93.5 -9l7 99q-95 -22 -270 -22
q-6 41 -11 101t-7 166q42 -1 71 -2t49.5 -2t43.5 -2.5t48 -4.5l5 89q-47 -7 -98.5 -9.5t-119.5 -2.5l1 32q0 14 0.5 50.5t1 56t1.5 40.5t2 50q9 1 37 2t37 1q63 0 111 -4t93 -16z" />
    <glyph glyph-name="Eacute" unicode="&#xc9;" horiz-adv-x="672" 
d="M336 754q20 23 51 49t82 56l-72 51l-114 -143zM541 709q-107 -10 -199 -10q-34 0 -76 1q-23 1 -54 2t-49 3v-1q5 -31 8 -54.5t6 -62t5 -91.5t2 -118q0 -126 -4.5 -209.5t-22.5 -165.5q17 0 74 1q81 1 97 1q54 0 112.5 -4t93.5 -9l7 99q-95 -22 -270 -22q-6 41 -11 101
t-7 166q42 -1 71 -2t49.5 -2t43.5 -2.5t48 -4.5l5 89q-47 -7 -98.5 -9.5t-119.5 -2.5l1 32q0 14 0.5 50.5t1 56t1.5 40.5t2 50q9 1 37 2t37 1q63 0 111 -4t93 -16z" />
    <glyph glyph-name="Ecircumflex" unicode="&#xca;" horiz-adv-x="672" 
d="M485 782q-23 32 -52 65t-82 79l-164 -139l63 -31q21 30 38.5 48.5t55.5 52.5l3 3q23 -22 45 -48.5t37 -57.5zM541 709q-107 -10 -199 -10q-34 0 -76 1q-23 1 -54 2t-49 3v-1q5 -31 8 -54.5t6 -62t5 -91.5t2 -118q0 -126 -4.5 -209.5t-22.5 -165.5q17 0 74 1q81 1 97 1
q54 0 112.5 -4t93.5 -9l7 99q-95 -22 -270 -22q-6 41 -11 101t-7 166q42 -1 71 -2t49.5 -2t43.5 -2.5t48 -4.5l5 89q-47 -7 -98.5 -9.5t-119.5 -2.5l1 32q0 14 0.5 50.5t1 56t1.5 40.5t2 50q9 1 37 2t37 1q63 0 111 -4t93 -16z" />
    <glyph glyph-name="Edieresis" unicode="&#xcb;" horiz-adv-x="672" 
d="M262 817q-13 22 -27.5 33t-38.5 24q-17 -12 -35 -29.5t-30 -36.5q14 -19 27.5 -31.5t38.5 -22.5q16 11 33.5 26.5t31.5 36.5zM541 828q-21 17 -38 26t-40 16l-2 -1q-15 -11 -28.5 -24t-30.5 -38q17 -17 33 -28.5t48 -24.5q18 18 29 32t29 42zM541 709q-107 -10 -199 -10
q-34 0 -76 1q-23 1 -54 2t-49 3v-1q5 -31 8 -54.5t6 -62t5 -91.5t2 -118q0 -126 -4.5 -209.5t-22.5 -165.5q17 0 74 1q81 1 97 1q54 0 112.5 -4t93.5 -9l7 99q-95 -22 -270 -22q-6 41 -11 101t-7 166q42 -1 71 -2t49.5 -2t43.5 -2.5t48 -4.5l5 89q-47 -7 -98.5 -9.5
t-119.5 -2.5l1 32q0 14 0.5 50.5t1 56t1.5 40.5t2 50q9 1 37 2t37 1q63 0 111 -4t93 -16z" />
    <glyph glyph-name="Igrave" unicode="&#xcc;" horiz-adv-x="444" 
d="M136 866q32 -41 64 -68t61 -44l47 19q-41 39 -61.5 68t-34.5 69zM294 0q-8 25 -14 46.5t-10.5 56.5t-7.5 88.5t-3 129.5q0 74 10 220q5 63 10.5 99.5t14.5 76.5l-134 -11q7 -27 11 -48.5t8 -54.5t6 -79t2 -106q0 -34 -1.5 -96t-3.5 -99q-4 -82 -10.5 -130.5t-14.5 -90.5
l-1 -2h138z" />
    <glyph glyph-name="Iacute" unicode="&#xcd;" horiz-adv-x="444" 
d="M192 754q20 23 51 49t82 56l-72 51l-114 -143zM294 0q-8 25 -14 46.5t-10.5 56.5t-7.5 88.5t-3 129.5q0 74 10 220q5 63 10.5 99.5t14.5 76.5l-134 -11q7 -27 11 -48.5t8 -54.5t6 -79t2 -106q0 -34 -1.5 -96t-3.5 -99q-4 -82 -10.5 -130.5t-14.5 -90.5l-1 -2h138z" />
    <glyph glyph-name="Icircumflex" unicode="&#xce;" horiz-adv-x="444" 
d="M371 782q-23 32 -52 65t-82 79l-164 -139l63 -31q21 30 38.5 48.5t55.5 52.5l3 3q23 -22 45 -48.5t37 -57.5zM294 0q-8 25 -14 46.5t-10.5 56.5t-7.5 88.5t-3 129.5q0 74 10 220q5 63 10.5 99.5t14.5 76.5l-134 -11q7 -27 11 -48.5t8 -54.5t6 -79t2 -106q0 -34 -1.5 -96
t-3.5 -99q-4 -82 -10.5 -130.5t-14.5 -90.5l-1 -2h138z" />
    <glyph glyph-name="Idieresis" unicode="&#xcf;" horiz-adv-x="444" 
d="M160 817q-14 22 -28 33t-38 24q-17 -12 -35 -29.5t-30 -36.5q14 -19 27.5 -31.5t38.5 -22.5q16 11 33.5 26.5t31.5 36.5zM439 828q-21 17 -38 26t-40 16l-2 -1q-15 -11 -28.5 -24t-30.5 -38q17 -17 33 -28.5t48 -24.5q18 18 29 32t29 42zM294 0q-8 25 -14 46.5
t-10.5 56.5t-7.5 88.5t-3 129.5q0 74 10 220q5 63 10.5 99.5t14.5 76.5l-134 -11q7 -27 11 -48.5t8 -54.5t6 -79t2 -106q0 -34 -1.5 -96t-3.5 -99q-4 -82 -10.5 -130.5t-14.5 -90.5l-1 -2h138z" />
    <glyph glyph-name="Eth" unicode="&#xd0;" horiz-adv-x="759" 
d="M25 340l11 1q75 7 92.5 8.5t28 2t21.5 1.5l-1 -63q-1 -62 -2.5 -114t-2.5 -83t-2.5 -58t-4.5 -60q78 24 152 52.5t155 78t137 121.5t56 163q0 24 -6 54t-22 63.5t-46 68.5t-75 65q-74 50 -159.5 69t-201.5 25q7 -40 11 -71.5t6 -65.5t3 -74.5t3 -126.5q-100 0 -138 1z
M427 411q-22 -2 -57 -4.5t-60.5 -4.5t-62.5 -4v52v33q0 41 1 74t4 99h1q60 -3 109 -14t100 -45q51 -33 84.5 -82.5t33.5 -118.5q0 -46 -15.5 -86.5t-52 -79.5t-98 -77t-152.5 -75q-4 39 -6.5 68.5t-4.5 62.5t-2 57.5t-1 89.5h36q17 1 23 1q26 0 46.5 -1t58.5 -4z" />
    <glyph glyph-name="Ntilde" unicode="&#xd1;" horiz-adv-x="945" 
d="M624 896q-28 -36 -47.5 -52.5t-34.5 -16.5q-12 0 -22 6t-30 23q-19 17 -33 25t-33 8q-27 0 -58 -22.5t-79 -76.5l40 -36q28 42 50.5 59t37.5 17q11 0 20 -5.5t31 -23.5l4 -3q23 -19 37 -26.5t29 -7.5t33.5 9.5t50.5 44.5l39 41zM277 -19q-8 37 -14 83.5t-9 97.5
t-4.5 99.5t-1.5 92.5q0 64 3 144l1 16q24 -18 56 -45t61 -53.5t58 -54.5t62 -60l1 -1q57 -55 93.5 -94t60.5 -67.5t37 -47t25 -37.5q27 8 61 27h1q-2 47 -2.5 105t-0.5 137q0 57 3 140.5t8 144.5q4 40 9 69t12 57l-122 12q8 -36 11.5 -55.5t7 -52t5.5 -75t2 -99.5
q0 -22 -0.5 -51.5t-2 -72t-3 -79t-2.5 -51.5q-134 128 -213.5 204t-122.5 118.5t-70 71t-69 75.5l-1 1q-8 -3 -24.5 -11t-26.5 -14q6 -30 10 -62q3 -26 5 -80.5t2 -126.5q0 -58 -1.5 -117.5t-4 -113t-7.5 -99.5t-11 -75h118z" />
    <glyph glyph-name="Ograve" unicode="&#xd2;" 
d="M368 866q32 -41 64 -68t61 -44l47 19q-41 39 -61.5 68t-34.5 69zM439 -1q81 0 153 27.5t126.5 77t85 116.5t30.5 143q0 68 -25 130.5t-73.5 111.5t-118 77t-154.5 28q-78 0 -151 -29t-129 -83q-36 -34 -58 -69t-33 -67t-14.5 -58t-3.5 -52q0 -90 37 -156.5t89 -110.5
q49 -42 112.5 -64t126.5 -22zM451 72q-65 0 -120 24t-93 64.5t-58.5 91.5t-20.5 104t21 103.5t61 90.5t97 63.5t125 23.5q70 0 124 -25.5t89.5 -67.5t53 -91.5t17.5 -96.5q0 -65 -27 -118.5t-71.5 -90.5t-96.5 -56t-101 -19z" />
    <glyph glyph-name="Oacute" unicode="&#xd3;" 
d="M414 754q20 23 51 49t82 56l-72 51l-114 -143zM439 -1q81 0 153 27.5t126.5 77t85 116.5t30.5 143q0 68 -25 130.5t-73.5 111.5t-118 77t-154.5 28q-78 0 -151 -29t-129 -83q-36 -34 -58 -69t-33 -67t-14.5 -58t-3.5 -52q0 -90 37 -156.5t89 -110.5q49 -42 112.5 -64
t126.5 -22zM451 72q-65 0 -120 24t-93 64.5t-58.5 91.5t-20.5 104t21 103.5t61 90.5t97 63.5t125 23.5q70 0 124 -25.5t89.5 -67.5t53 -91.5t17.5 -96.5q0 -65 -27 -118.5t-71.5 -90.5t-96.5 -56t-101 -19z" />
    <glyph glyph-name="Ocircumflex" unicode="&#xd4;" 
d="M603 782q-23 32 -52 65t-82 79l-164 -139l63 -31q21 30 38.5 48.5t55.5 52.5l3 3q23 -22 45 -48.5t37 -57.5zM439 -1q81 0 153 27.5t126.5 77t85 116.5t30.5 143q0 68 -25 130.5t-73.5 111.5t-118 77t-154.5 28q-78 0 -151 -29t-129 -83q-36 -34 -58 -69t-33 -67
t-14.5 -58t-3.5 -52q0 -90 37 -156.5t89 -110.5q49 -42 112.5 -64t126.5 -22zM451 72q-65 0 -120 24t-93 64.5t-58.5 91.5t-20.5 104t21 103.5t61 90.5t97 63.5t125 23.5q70 0 124 -25.5t89.5 -67.5t53 -91.5t17.5 -96.5q0 -65 -27 -118.5t-71.5 -90.5t-96.5 -56t-101 -19z
" />
    <glyph glyph-name="Otilde" unicode="&#xd5;" 
d="M605 896q-28 -36 -47.5 -52.5t-34.5 -16.5q-12 0 -22 6t-30 23q-19 17 -33 25t-33 8q-27 0 -58 -22.5t-79 -76.5l40 -36q28 42 50.5 59t37.5 17q11 0 20 -5.5t31 -23.5l4 -3q23 -19 37 -26.5t29 -7.5t33.5 9.5t50.5 44.5l39 41zM439 -1q81 0 153 27.5t126.5 77t85 116.5
t30.5 143q0 68 -25 130.5t-73.5 111.5t-118 77t-154.5 28q-78 0 -151 -29t-129 -83q-36 -34 -58 -69t-33 -67t-14.5 -58t-3.5 -52q0 -90 37 -156.5t89 -110.5q49 -42 112.5 -64t126.5 -22zM451 72q-65 0 -120 24t-93 64.5t-58.5 91.5t-20.5 104t21 103.5t61 90.5t97 63.5
t125 23.5q70 0 124 -25.5t89.5 -67.5t53 -91.5t17.5 -96.5q0 -65 -27 -118.5t-71.5 -90.5t-96.5 -56t-101 -19z" />
    <glyph glyph-name="Odieresis" unicode="&#xd6;" 
d="M380 817q-13 22 -27.5 33t-38.5 24q-17 -12 -34.5 -29.5t-30.5 -36.5q14 -19 27.5 -31.5t38.5 -22.5q16 11 33.5 26.5t31.5 36.5zM659 828q-21 17 -38 26t-40 16l-2 -1q-15 -11 -28.5 -24t-30.5 -38q17 -17 33 -28.5t48 -24.5q18 18 29 32t29 42zM439 -1q81 0 153 27.5
t126.5 77t85 116.5t30.5 143q0 68 -25 130.5t-73.5 111.5t-118 77t-154.5 28q-78 0 -151 -29t-129 -83q-36 -34 -58 -69t-33 -67t-14.5 -58t-3.5 -52q0 -90 37 -156.5t89 -110.5q49 -42 112.5 -64t126.5 -22zM451 72q-65 0 -120 24t-93 64.5t-58.5 91.5t-20.5 104t21 103.5
t61 90.5t97 63.5t125 23.5q70 0 124 -25.5t89.5 -67.5t53 -91.5t17.5 -96.5q0 -65 -27 -118.5t-71.5 -90.5t-96.5 -56t-101 -19z" />
    <glyph glyph-name="Oslash" unicode="&#xd8;" 
d="M217 -29l10 15q19 29 38 56q85 -43 178 -43q74 0 144.5 26t126 74.5t88 116t32.5 147.5q0 85 -37.5 157t-105.5 123q22 30 32.5 44l10.5 14l-57 31q-8 -12 -15.5 -22.5t-21.5 -31.5q-2 -3 -3 -4q-81 36 -174 36q-78 0 -151 -29t-129 -83q-36 -34 -58 -69t-33 -67
t-14.5 -58t-3.5 -52q0 -92 40 -161.5t99 -116.5q-8 -10 -22 -30q-9 -12 -17 -23t-15 -20zM309 107q177 256 334 470q42 -34 73 -92t31 -129q0 -64 -26.5 -117.5t-71 -90.5t-98 -56.5t-105.5 -19.5q-43 0 -74 9.5t-62 24.5zM261 139l-2 2q-19 19 -33.5 35.5t-30 42.5
t-26 60.5t-10.5 76.5q0 53 21 103.5t61 90.5t97 63.5t125 23.5q43 0 74.5 -8t55.5 -20q-55 -80 -93.5 -135.5t-70.5 -101t-76 -106.5t-92 -127z" />
    <glyph glyph-name="Ugrave" unicode="&#xd9;" horiz-adv-x="927" 
d="M378 866q32 -41 64 -68t61 -44l47 19q-41 39 -61.5 68t-34.5 69zM91 678q11 -25 18.5 -41.5t15.5 -39t18.5 -57t26.5 -91.5q5 -17 16 -60t25 -102q16 -61 16 -62l1 -3q14 -53 26 -88.5t33 -68.5t55 -53.5t83 -20.5q52 0 98.5 25t80.5 68q13 17 24.5 38t24.5 50.5t26.5 64
t39.5 102.5q39 102 57 149t31.5 79.5t25.5 59t31 64.5l-129 41q0 -6 1 -22v-13q0 -5 -1 -14v-15q-1 -23 -8 -57.5t-17.5 -73.5t-22 -77t-24.5 -75q-33 -94 -57 -152t-47.5 -94.5t-50.5 -53t-62 -16.5q-36 0 -61.5 18t-44.5 55.5t-36.5 96t-40.5 156.5q-13 56 -20.5 97
t-11.5 75t-5.5 65.5t-1.5 75.5z" />
    <glyph glyph-name="Uacute" unicode="&#xda;" horiz-adv-x="927" 
d="M439 754q20 23 51 49t82 56l-72 51l-114 -143zM91 678q11 -25 18.5 -41.5t15.5 -39t18.5 -57t26.5 -91.5q5 -17 16 -60t25 -102q16 -61 16 -62l1 -3q14 -53 26 -88.5t33 -68.5t55 -53.5t83 -20.5q52 0 98.5 25t80.5 68q13 17 24.5 38t24.5 50.5t26.5 64t39.5 102.5
q39 102 57 149t31.5 79.5t25.5 59t31 64.5l-129 41q0 -6 1 -22v-13q0 -5 -1 -14v-15q-1 -23 -8 -57.5t-17.5 -73.5t-22 -77t-24.5 -75q-33 -94 -57 -152t-47.5 -94.5t-50.5 -53t-62 -16.5q-36 0 -61.5 18t-44.5 55.5t-36.5 96t-40.5 156.5q-13 56 -20.5 97t-11.5 75
t-5.5 65.5t-1.5 75.5z" />
    <glyph glyph-name="Ucircumflex" unicode="&#xdb;" horiz-adv-x="927" 
d="M613 782q-23 32 -52 65t-82 79l-164 -139l63 -31q21 30 38.5 48.5t55.5 52.5l3 3q23 -22 45 -48.5t37 -57.5zM91 678q11 -25 18.5 -41.5t15.5 -39t18.5 -57t26.5 -91.5q5 -17 16 -60t25 -102q16 -61 16 -62l1 -3q14 -53 26 -88.5t33 -68.5t55 -53.5t83 -20.5
q52 0 98.5 25t80.5 68q13 17 24.5 38t24.5 50.5t26.5 64t39.5 102.5q39 102 57 149t31.5 79.5t25.5 59t31 64.5l-129 41q0 -6 1 -22v-13q0 -5 -1 -14v-15q-1 -23 -8 -57.5t-17.5 -73.5t-22 -77t-24.5 -75q-33 -94 -57 -152t-47.5 -94.5t-50.5 -53t-62 -16.5q-36 0 -61.5 18
t-44.5 55.5t-36.5 96t-40.5 156.5q-13 56 -20.5 97t-11.5 75t-5.5 65.5t-1.5 75.5z" />
    <glyph glyph-name="Udieresis" unicode="&#xdc;" horiz-adv-x="927" 
d="M405 817q-13 22 -27.5 33t-38.5 24q-17 -12 -34.5 -29.5t-30.5 -36.5q14 -19 27.5 -31.5t38.5 -22.5q16 11 33.5 26.5t31.5 36.5zM684 828q-21 17 -38 26t-40 16l-2 -1q-15 -11 -28.5 -24t-30.5 -38q17 -17 33 -28.5t48 -24.5q18 18 29 32t29 42zM91 678
q11 -25 18.5 -41.5t15.5 -39t18.5 -57t26.5 -91.5q5 -17 16 -60t25 -102q16 -61 16 -62l1 -3q14 -53 26 -88.5t33 -68.5t55 -53.5t83 -20.5q52 0 98.5 25t80.5 68q13 17 24.5 38t24.5 50.5t26.5 64t39.5 102.5q39 102 57 149t31.5 79.5t25.5 59t31 64.5l-129 41q0 -6 1 -22
v-13q0 -5 -1 -14v-15q-1 -23 -8 -57.5t-17.5 -73.5t-22 -77t-24.5 -75q-33 -94 -57 -152t-47.5 -94.5t-50.5 -53t-62 -16.5q-36 0 -61.5 18t-44.5 55.5t-36.5 96t-40.5 156.5q-13 56 -20.5 97t-11.5 75t-5.5 65.5t-1.5 75.5z" />
    <glyph glyph-name="Yacute" unicode="&#xdd;" horiz-adv-x="681" 
d="M321 754q20 23 51 49t82 56l-72 51l-114 -143zM390 0q-12 34 -21 81.5t-9 119.5q0 51 6 107v6l4 5q51 73 88 122.5t81 97.5q51 55 86 78t65 35l-95 79l-1 -2q-15 -24 -24.5 -39.5t-21.5 -32.5t-33 -44t-62 -79q-16 -21 -38 -51t-47 -64q-31 -43 -34 -47
q-65 85 -105.5 141.5t-63.5 94t-33.5 59.5t-23.5 54l-1 2l-105 -84q19 -12 39 -28.5t46 -43.5q32 -34 59 -66t48 -60l94 -130v-2q2 -46 2 -84q0 -136 -40 -225h140z" />
    <glyph glyph-name="Thorn" unicode="&#xde;" horiz-adv-x="666" 
d="M295 0q-14 50 -23 110t-12.5 126.5t-4.5 122t-1 135.5q43 7 85 7q74 0 118 -32.5t44 -96.5q0 -40 -18.5 -70t-45 -49.5t-50.5 -29.5t-54 -19v0q23 -19 49 -35t56 -26q23 17 44.5 36.5t42 47.5t34.5 64t14 78q0 93 -67.5 148.5t-193.5 55.5q-13 0 -28.5 -0.5t-27.5 -1.5
q1 41 4.5 83.5t6.5 63.5q-44 -4 -60 -5.5t-37 -5.5q15 -168 15 -348q0 -69 -1 -115.5t-5 -86t-10.5 -76t-18.5 -81.5h145z" />
    <glyph glyph-name="germandbls" unicode="&#xdf;" horiz-adv-x="888" 
d="M294 754q-39 -28 -70 -52.5t-57.5 -55t-42.5 -66.5t-16 -77q0 -36 11.5 -63.5t42.5 -70.5l2 -3q31 -45 45.5 -66.5t23.5 -39t12.5 -33t3.5 -36.5q0 -56 -36.5 -88.5t-110.5 -58.5l82 -94l7 7q55 61 79.5 90t41 53t23 45.5t6.5 47.5q0 35 -15 65t-59 90q-42 59 -60.5 93.5
t-18.5 73.5q0 30 13.5 52t36 37.5t45.5 24.5t60 22h1zM738 754q-39 -28 -70 -52.5t-57.5 -55t-42.5 -66.5t-16 -77q0 -36 11.5 -63.5t42.5 -70.5l2 -3q31 -45 45.5 -66.5t23.5 -39t12.5 -33t3.5 -36.5q0 -56 -36.5 -88.5t-110.5 -58.5l82 -94l7 7q55 61 79.5 90t41 53
t23 45.5t6.5 47.5q0 35 -15 65t-59 90q-42 59 -60.5 93.5t-18.5 73.5q0 30 13.5 52t36 37.5t45.5 24.5t60 22h1z" />
    <glyph glyph-name="agrave" unicode="&#xe0;" horiz-adv-x="836" 
d="M332 866q32 -41 64 -68t61 -44l47 19q-41 39 -61.5 68t-34.5 69zM832 38q-14 14 -23 24t-20.5 24.5t-27 37t-34.5 52.5q-64 101 -113.5 193t-96.5 187q-30 61 -44 92.5t-25 67.5l-37 8q-34 -80 -79 -155l-239 -423q-22 -40 -38.5 -65.5t-32.5 -47.5l117 -55q1 31 5 52
t15 55q20 59 38.5 96t42.5 73q39 3 105.5 4t132.5 1q33 0 64 -1t52 -3q32 -53 64.5 -123t53.5 -150zM557 329q-95 -3 -133 -4t-79 -1q-11 0 -34 1h-37q9 19 24 47.5t32 60t40 72.5t43 73q4 -7 23.5 -40t47.5 -79q16 -27 33.5 -58.5t39.5 -71.5z" />
    <glyph glyph-name="aacute" unicode="&#xe1;" horiz-adv-x="836" 
d="M393 754q20 23 51 49t82 56l-72 51l-114 -143zM832 38q-14 14 -23 24t-20.5 24.5t-27 37t-34.5 52.5q-64 101 -113.5 193t-96.5 187q-30 61 -44 92.5t-25 67.5l-37 8q-34 -80 -79 -155l-239 -423q-22 -40 -38.5 -65.5t-32.5 -47.5l117 -55q1 31 5 52t15 55q20 59 38.5 96
t42.5 73q39 3 105.5 4t132.5 1q33 0 64 -1t52 -3q32 -53 64.5 -123t53.5 -150zM557 329q-95 -3 -133 -4t-79 -1q-11 0 -34 1h-37q9 19 24 47.5t32 60t40 72.5t43 73q4 -7 23.5 -40t47.5 -79q16 -27 33.5 -58.5t39.5 -71.5z" />
    <glyph glyph-name="acircumflex" unicode="&#xe2;" horiz-adv-x="836" 
d="M567 782q-23 32 -52 65t-82 79l-164 -139l63 -31q21 30 38.5 48.5t55.5 52.5l3 3q23 -22 45 -48.5t37 -57.5zM832 38q-14 14 -23 24t-20.5 24.5t-27 37t-34.5 52.5q-64 101 -113.5 193t-96.5 187q-30 61 -44 92.5t-25 67.5l-37 8q-34 -80 -79 -155l-239 -423
q-22 -40 -38.5 -65.5t-32.5 -47.5l117 -55q1 31 5 52t15 55q20 59 38.5 96t42.5 73q39 3 105.5 4t132.5 1q33 0 64 -1t52 -3q32 -53 64.5 -123t53.5 -150zM557 329q-95 -3 -133 -4t-79 -1q-11 0 -34 1h-37q9 19 24 47.5t32 60t40 72.5t43 73q4 -7 23.5 -40t47.5 -79
q16 -27 33.5 -58.5t39.5 -71.5z" />
    <glyph glyph-name="atilde" unicode="&#xe3;" horiz-adv-x="836" 
d="M569 896q-28 -36 -47.5 -52.5t-34.5 -16.5q-12 0 -22 6t-30 23q-19 17 -33 25t-33 8q-27 0 -58 -22.5t-79 -76.5l40 -36q28 42 50.5 59t37.5 17q11 0 20 -5.5t31 -23.5l4 -3q23 -19 37 -26.5t29 -7.5t33.5 9.5t50.5 44.5l39 41zM832 38q-14 14 -23 24t-20.5 24.5t-27 37
t-34.5 52.5q-64 101 -113.5 193t-96.5 187q-30 61 -44 92.5t-25 67.5l-37 8q-34 -80 -79 -155l-239 -423q-22 -40 -38.5 -65.5t-32.5 -47.5l117 -55q1 31 5 52t15 55q20 59 38.5 96t42.5 73q39 3 105.5 4t132.5 1q33 0 64 -1t52 -3q32 -53 64.5 -123t53.5 -150zM557 329
q-95 -3 -133 -4t-79 -1q-11 0 -34 1h-37q9 19 24 47.5t32 60t40 72.5t43 73q4 -7 23.5 -40t47.5 -79q16 -27 33.5 -58.5t39.5 -71.5z" />
    <glyph glyph-name="adieresis" unicode="&#xe4;" horiz-adv-x="836" 
d="M344 817q-13 22 -27.5 33t-38.5 24q-17 -12 -34.5 -29.5t-30.5 -36.5q14 -19 27.5 -31.5t38.5 -22.5q16 11 33.5 26.5t31.5 36.5zM623 828q-21 17 -38 26t-40 16l-2 -1q-15 -11 -28.5 -24t-30.5 -38q17 -17 33 -28.5t48 -24.5q18 18 29 32t29 42zM832 38q-14 14 -23 24
t-20.5 24.5t-27 37t-34.5 52.5q-64 101 -113.5 193t-96.5 187q-30 61 -44 92.5t-25 67.5l-37 8q-34 -80 -79 -155l-239 -423q-22 -40 -38.5 -65.5t-32.5 -47.5l117 -55q1 31 5 52t15 55q20 59 38.5 96t42.5 73q39 3 105.5 4t132.5 1q33 0 64 -1t52 -3q32 -53 64.5 -123
t53.5 -150zM557 329q-95 -3 -133 -4t-79 -1q-11 0 -34 1h-37q9 19 24 47.5t32 60t40 72.5t43 73q4 -7 23.5 -40t47.5 -79q16 -27 33.5 -58.5t39.5 -71.5z" />
    <glyph glyph-name="aring" unicode="&#xe5;" horiz-adv-x="836" 
d="M430 947q-62 0 -92.5 -31t-30.5 -70q0 -45 35 -73.5t89 -28.5q49 0 81.5 28t32.5 73q0 50 -33 76t-82 26zM426 910q44 0 62.5 -20.5t18.5 -44.5t-19.5 -45t-55.5 -21t-60 19t-24 48q0 25 20 44.5t58 19.5zM832 38q-14 14 -23 24t-20.5 24.5t-27 37t-34.5 52.5
q-64 101 -113.5 193t-96.5 187q-30 61 -44 92.5t-25 67.5l-37 8q-34 -80 -79 -155l-239 -423q-22 -40 -38.5 -65.5t-32.5 -47.5l117 -55q1 31 5 52t15 55q20 59 38.5 96t42.5 73q39 3 105.5 4t132.5 1q33 0 64 -1t52 -3q32 -53 64.5 -123t53.5 -150zM557 329q-95 -3 -133 -4
t-79 -1q-11 0 -34 1h-37q9 19 24 47.5t32 60t40 72.5t43 73q4 -7 23.5 -40t47.5 -79q16 -27 33.5 -58.5t39.5 -71.5z" />
    <glyph glyph-name="ae" unicode="&#xe6;" horiz-adv-x="1033" 
d="M106 -14q4 25 10.5 49.5t21.5 63t42.5 92t69.5 122.5q24 1 55 2q20 1 32 1q3 0 27 0.5t64 1.5q71 2 85 2l21 -86q16 -61 27 -116.5t16 -112.5q34 3 68 5t82 2q75 0 118 -6q36 -4 67 -11l14 102q-48 -11 -105 -16t-115 -5q-9 0 -26 1h-21q-31 83 -39 109l-39 134
q83 0 114 -1q20 0 46.5 -1.5t65.5 -3.5l16 95q-40 -9 -68.5 -14.5t-54.5 -8.5t-57 -4.5t-76 -3.5q-30 122 -49 259q9 0 36 1q37 1 53 1q19 0 53 -1q33 -1 38 -1q72 -2 111.5 -10t77.5 -22v0l-7 107l-10 -1q-46 -5 -85.5 -7.5t-110.5 -2.5q-47 0 -122 2l-34 1q-27 1 -60 3
q-25 1 -43 2q-8 -18 -16.5 -34.5t-28.5 -48.5q-15 -25 -23.5 -37.5t-19 -29.5t-48 -75.5t-74.5 -115.5l-4 -7q-55 -85 -87.5 -135t-50.5 -76t-30.5 -42.5t-28.5 -34.5zM444 619l55 -241q-57 0 -110.5 1.5t-99.5 3.5z" />
    <glyph glyph-name="ccedilla" unicode="&#xe7;" horiz-adv-x="520" 
d="M363 750q-5 -4 -47 -38q-25 -20 -51.5 -41.5t-34.5 -28.5q-78 -67 -109 -133t-31 -139q0 -81 37.5 -156.5t100.5 -143.5q5 -5 53 -52l33.5 -33.5l21.5 -21.5l71 99q-39 15 -76 36t-75 60q-45 46 -66.5 103t-21.5 109q0 60 29.5 120t94.5 103q30 19 58 31t60 24h1z
M293 -101q25 -15 31.5 -23t6.5 -16q0 -14 -10.5 -30t-31.5 -41l-1 -1l27 -22q11 11 23.5 24.5t25 29.5t20.5 31.5t8 27.5q0 20 -19 36t-47 32z" />
    <glyph glyph-name="egrave" unicode="&#xe8;" horiz-adv-x="672" 
d="M250 866q32 -41 64 -68t61 -44l47 19q-41 39 -61.5 68t-34.5 69zM541 709q-107 -10 -199 -10q-34 0 -76 1q-23 1 -54 2t-49 3v-1q5 -31 8 -54.5t6 -62t5 -91.5t2 -118q0 -126 -4.5 -209.5t-22.5 -165.5q17 0 74 1q81 1 97 1q54 0 112.5 -4t93.5 -9l7 99q-95 -22 -270 -22
q-6 41 -11 101t-7 166q42 -1 71 -2t49.5 -2t43.5 -2.5t48 -4.5l5 89q-47 -7 -98.5 -9.5t-119.5 -2.5l1 32q0 14 0.5 50.5t1 56t1.5 40.5t2 50q9 1 37 2t37 1q63 0 111 -4t93 -16z" />
    <glyph glyph-name="eacute" unicode="&#xe9;" horiz-adv-x="672" 
d="M336 754q20 23 51 49t82 56l-72 51l-114 -143zM541 709q-107 -10 -199 -10q-34 0 -76 1q-23 1 -54 2t-49 3v-1q5 -31 8 -54.5t6 -62t5 -91.5t2 -118q0 -126 -4.5 -209.5t-22.5 -165.5q17 0 74 1q81 1 97 1q54 0 112.5 -4t93.5 -9l7 99q-95 -22 -270 -22q-6 41 -11 101
t-7 166q42 -1 71 -2t49.5 -2t43.5 -2.5t48 -4.5l5 89q-47 -7 -98.5 -9.5t-119.5 -2.5l1 32q0 14 0.5 50.5t1 56t1.5 40.5t2 50q9 1 37 2t37 1q63 0 111 -4t93 -16z" />
    <glyph glyph-name="ecircumflex" unicode="&#xea;" horiz-adv-x="672" 
d="M485 782q-23 32 -52 65t-82 79l-164 -139l63 -31q21 30 38.5 48.5t55.5 52.5l3 3q23 -22 45 -48.5t37 -57.5zM541 709q-107 -10 -199 -10q-34 0 -76 1q-23 1 -54 2t-49 3v-1q5 -31 8 -54.5t6 -62t5 -91.5t2 -118q0 -126 -4.5 -209.5t-22.5 -165.5q17 0 74 1q81 1 97 1
q54 0 112.5 -4t93.5 -9l7 99q-95 -22 -270 -22q-6 41 -11 101t-7 166q42 -1 71 -2t49.5 -2t43.5 -2.5t48 -4.5l5 89q-47 -7 -98.5 -9.5t-119.5 -2.5l1 32q0 14 0.5 50.5t1 56t1.5 40.5t2 50q9 1 37 2t37 1q63 0 111 -4t93 -16z" />
    <glyph glyph-name="edieresis" unicode="&#xeb;" horiz-adv-x="672" 
d="M262 817q-13 22 -27.5 33t-38.5 24q-17 -12 -35 -29.5t-30 -36.5q14 -19 27.5 -31.5t38.5 -22.5q16 11 33.5 26.5t31.5 36.5zM541 828q-21 17 -38 26t-40 16l-2 -1q-15 -11 -28.5 -24t-30.5 -38q17 -17 33 -28.5t48 -24.5q18 18 29 32t29 42zM541 709q-107 -10 -199 -10
q-34 0 -76 1q-23 1 -54 2t-49 3v-1q5 -31 8 -54.5t6 -62t5 -91.5t2 -118q0 -126 -4.5 -209.5t-22.5 -165.5q17 0 74 1q81 1 97 1q54 0 112.5 -4t93.5 -9l7 99q-95 -22 -270 -22q-6 41 -11 101t-7 166q42 -1 71 -2t49.5 -2t43.5 -2.5t48 -4.5l5 89q-47 -7 -98.5 -9.5
t-119.5 -2.5l1 32q0 14 0.5 50.5t1 56t1.5 40.5t2 50q9 1 37 2t37 1q63 0 111 -4t93 -16z" />
    <glyph glyph-name="igrave" unicode="&#xec;" horiz-adv-x="444" 
d="M136 866q32 -41 64 -68t61 -44l47 19q-41 39 -61.5 68t-34.5 69zM294 0q-8 25 -14 46.5t-10.5 56.5t-7.5 88.5t-3 129.5q0 74 10 220q5 63 10.5 99.5t14.5 76.5l-134 -11q7 -27 11 -48.5t8 -54.5t6 -79t2 -106q0 -34 -1.5 -96t-3.5 -99q-4 -82 -10.5 -130.5t-14.5 -90.5
l-1 -2h138z" />
    <glyph glyph-name="iacute" unicode="&#xed;" horiz-adv-x="444" 
d="M192 754q20 23 51 49t82 56l-72 51l-114 -143zM294 0q-8 25 -14 46.5t-10.5 56.5t-7.5 88.5t-3 129.5q0 74 10 220q5 63 10.5 99.5t14.5 76.5l-134 -11q7 -27 11 -48.5t8 -54.5t6 -79t2 -106q0 -34 -1.5 -96t-3.5 -99q-4 -82 -10.5 -130.5t-14.5 -90.5l-1 -2h138z" />
    <glyph glyph-name="icircumflex" unicode="&#xee;" horiz-adv-x="444" 
d="M371 782q-23 32 -52 65t-82 79l-164 -139l63 -31q21 30 38.5 48.5t55.5 52.5l3 3q23 -22 45 -48.5t37 -57.5zM294 0q-8 25 -14 46.5t-10.5 56.5t-7.5 88.5t-3 129.5q0 74 10 220q5 63 10.5 99.5t14.5 76.5l-134 -11q7 -27 11 -48.5t8 -54.5t6 -79t2 -106q0 -34 -1.5 -96
t-3.5 -99q-4 -82 -10.5 -130.5t-14.5 -90.5l-1 -2h138z" />
    <glyph glyph-name="idieresis" unicode="&#xef;" horiz-adv-x="444" 
d="M160 817q-14 22 -28 33t-38 24q-17 -12 -35 -29.5t-30 -36.5q14 -19 27.5 -31.5t38.5 -22.5q16 11 33.5 26.5t31.5 36.5zM439 828q-21 17 -38 26t-40 16l-2 -1q-15 -11 -28.5 -24t-30.5 -38q17 -17 33 -28.5t48 -24.5q18 18 29 32t29 42zM294 0q-8 25 -14 46.5
t-10.5 56.5t-7.5 88.5t-3 129.5q0 74 10 220q5 63 10.5 99.5t14.5 76.5l-134 -11q7 -27 11 -48.5t8 -54.5t6 -79t2 -106q0 -34 -1.5 -96t-3.5 -99q-4 -82 -10.5 -130.5t-14.5 -90.5l-1 -2h138z" />
    <glyph glyph-name="eth" unicode="&#xf0;" horiz-adv-x="759" 
d="M25 340l11 1q75 7 92.5 8.5t28 2t21.5 1.5l-1 -63q-1 -62 -2.5 -114t-2.5 -83t-2.5 -58t-4.5 -60q78 24 152 52.5t155 78t137 121.5t56 163q0 24 -6 54t-22 63.5t-46 68.5t-75 65q-74 50 -159.5 69t-201.5 25q7 -40 11 -71.5t6 -65.5t3 -74.5t3 -126.5q-100 0 -138 1z
M427 411q-22 -2 -57 -4.5t-60.5 -4.5t-62.5 -4v52v33q0 41 1 74t4 99h1q60 -3 109 -14t100 -45q51 -33 84.5 -82.5t33.5 -118.5q0 -46 -15.5 -86.5t-52 -79.5t-98 -77t-152.5 -75q-4 39 -6.5 68.5t-4.5 62.5t-2 57.5t-1 89.5h36q17 1 23 1q26 0 46.5 -1t58.5 -4z" />
    <glyph glyph-name="ntilde" unicode="&#xf1;" horiz-adv-x="945" 
d="M624 896q-28 -36 -47.5 -52.5t-34.5 -16.5q-12 0 -22 6t-30 23q-19 17 -33 25t-33 8q-27 0 -58 -22.5t-79 -76.5l40 -36q28 42 50.5 59t37.5 17q11 0 20 -5.5t31 -23.5l4 -3q23 -19 37 -26.5t29 -7.5t33.5 9.5t50.5 44.5l39 41zM277 -19q-8 37 -14 83.5t-9 97.5
t-4.5 99.5t-1.5 92.5q0 64 3 144l1 16q24 -18 56 -45t61 -53.5t58 -54.5t62 -60l1 -1q57 -55 93.5 -94t60.5 -67.5t37 -47t25 -37.5q27 8 61 27h1q-2 47 -2.5 105t-0.5 137q0 57 3 140.5t8 144.5q4 40 9 69t12 57l-122 12q8 -36 11.5 -55.5t7 -52t5.5 -75t2 -99.5
q0 -22 -0.5 -51.5t-2 -72t-3 -79t-2.5 -51.5q-134 128 -213.5 204t-122.5 118.5t-70 71t-69 75.5l-1 1q-8 -3 -24.5 -11t-26.5 -14q6 -30 10 -62q3 -26 5 -80.5t2 -126.5q0 -58 -1.5 -117.5t-4 -113t-7.5 -99.5t-11 -75h118z" />
    <glyph glyph-name="ograve" unicode="&#xf2;" 
d="M368 866q32 -41 64 -68t61 -44l47 19q-41 39 -61.5 68t-34.5 69zM439 -1q81 0 153 27.5t126.5 77t85 116.5t30.5 143q0 68 -25 130.5t-73.5 111.5t-118 77t-154.5 28q-78 0 -151 -29t-129 -83q-36 -34 -58 -69t-33 -67t-14.5 -58t-3.5 -52q0 -90 37 -156.5t89 -110.5
q49 -42 112.5 -64t126.5 -22zM451 72q-65 0 -120 24t-93 64.5t-58.5 91.5t-20.5 104t21 103.5t61 90.5t97 63.5t125 23.5q70 0 124 -25.5t89.5 -67.5t53 -91.5t17.5 -96.5q0 -65 -27 -118.5t-71.5 -90.5t-96.5 -56t-101 -19z" />
    <glyph glyph-name="oacute" unicode="&#xf3;" 
d="M414 754q20 23 51 49t82 56l-72 51l-114 -143zM439 -1q81 0 153 27.5t126.5 77t85 116.5t30.5 143q0 68 -25 130.5t-73.5 111.5t-118 77t-154.5 28q-78 0 -151 -29t-129 -83q-36 -34 -58 -69t-33 -67t-14.5 -58t-3.5 -52q0 -90 37 -156.5t89 -110.5q49 -42 112.5 -64
t126.5 -22zM451 72q-65 0 -120 24t-93 64.5t-58.5 91.5t-20.5 104t21 103.5t61 90.5t97 63.5t125 23.5q70 0 124 -25.5t89.5 -67.5t53 -91.5t17.5 -96.5q0 -65 -27 -118.5t-71.5 -90.5t-96.5 -56t-101 -19z" />
    <glyph glyph-name="ocircumflex" unicode="&#xf4;" 
d="M603 782q-23 32 -52 65t-82 79l-164 -139l63 -31q21 30 38.5 48.5t55.5 52.5l3 3q23 -22 45 -48.5t37 -57.5zM439 -1q81 0 153 27.5t126.5 77t85 116.5t30.5 143q0 68 -25 130.5t-73.5 111.5t-118 77t-154.5 28q-78 0 -151 -29t-129 -83q-36 -34 -58 -69t-33 -67
t-14.5 -58t-3.5 -52q0 -90 37 -156.5t89 -110.5q49 -42 112.5 -64t126.5 -22zM451 72q-65 0 -120 24t-93 64.5t-58.5 91.5t-20.5 104t21 103.5t61 90.5t97 63.5t125 23.5q70 0 124 -25.5t89.5 -67.5t53 -91.5t17.5 -96.5q0 -65 -27 -118.5t-71.5 -90.5t-96.5 -56t-101 -19z
" />
    <glyph glyph-name="otilde" unicode="&#xf5;" 
d="M605 896q-28 -36 -47.5 -52.5t-34.5 -16.5q-12 0 -22 6t-30 23q-19 17 -33 25t-33 8q-27 0 -58 -22.5t-79 -76.5l40 -36q28 42 50.5 59t37.5 17q11 0 20 -5.5t31 -23.5l4 -3q23 -19 37 -26.5t29 -7.5t33.5 9.5t50.5 44.5l39 41zM439 -1q81 0 153 27.5t126.5 77t85 116.5
t30.5 143q0 68 -25 130.5t-73.5 111.5t-118 77t-154.5 28q-78 0 -151 -29t-129 -83q-36 -34 -58 -69t-33 -67t-14.5 -58t-3.5 -52q0 -90 37 -156.5t89 -110.5q49 -42 112.5 -64t126.5 -22zM451 72q-65 0 -120 24t-93 64.5t-58.5 91.5t-20.5 104t21 103.5t61 90.5t97 63.5
t125 23.5q70 0 124 -25.5t89.5 -67.5t53 -91.5t17.5 -96.5q0 -65 -27 -118.5t-71.5 -90.5t-96.5 -56t-101 -19z" />
    <glyph glyph-name="odieresis" unicode="&#xf6;" 
d="M380 817q-13 22 -27.5 33t-38.5 24q-17 -12 -34.5 -29.5t-30.5 -36.5q14 -19 27.5 -31.5t38.5 -22.5q16 11 33.5 26.5t31.5 36.5zM659 828q-21 17 -38 26t-40 16l-2 -1q-15 -11 -28.5 -24t-30.5 -38q17 -17 33 -28.5t48 -24.5q18 18 29 32t29 42zM439 -1q81 0 153 27.5
t126.5 77t85 116.5t30.5 143q0 68 -25 130.5t-73.5 111.5t-118 77t-154.5 28q-78 0 -151 -29t-129 -83q-36 -34 -58 -69t-33 -67t-14.5 -58t-3.5 -52q0 -90 37 -156.5t89 -110.5q49 -42 112.5 -64t126.5 -22zM451 72q-65 0 -120 24t-93 64.5t-58.5 91.5t-20.5 104t21 103.5
t61 90.5t97 63.5t125 23.5q70 0 124 -25.5t89.5 -67.5t53 -91.5t17.5 -96.5q0 -65 -27 -118.5t-71.5 -90.5t-96.5 -56t-101 -19z" />
    <glyph glyph-name="oslash" unicode="&#xf8;" 
d="M217 -29l10 15q19 29 38 56q85 -43 178 -43q74 0 144.5 26t126 74.5t88 116t32.5 147.5q0 85 -37.5 157t-105.5 123q22 30 32.5 44l10.5 14l-57 31q-8 -12 -15.5 -22.5t-21.5 -31.5q-2 -3 -3 -4q-81 36 -174 36q-78 0 -151 -29t-129 -83q-36 -34 -58 -69t-33 -67
t-14.5 -58t-3.5 -52q0 -92 40 -161.5t99 -116.5q-8 -10 -22 -30q-9 -12 -17 -23t-15 -20zM309 107q177 256 334 470q42 -34 73 -92t31 -129q0 -64 -26.5 -117.5t-71 -90.5t-98 -56.5t-105.5 -19.5q-43 0 -74 9.5t-62 24.5zM261 139l-2 2q-19 19 -33.5 35.5t-30 42.5
t-26 60.5t-10.5 76.5q0 53 21 103.5t61 90.5t97 63.5t125 23.5q43 0 74.5 -8t55.5 -20q-55 -80 -93.5 -135.5t-70.5 -101t-76 -106.5t-92 -127z" />
    <glyph glyph-name="ugrave" unicode="&#xf9;" horiz-adv-x="927" 
d="M378 866q32 -41 64 -68t61 -44l47 19q-41 39 -61.5 68t-34.5 69zM91 678q11 -25 18.5 -41.5t15.5 -39t18.5 -57t26.5 -91.5q5 -17 16 -60t25 -102q16 -61 16 -62l1 -3q14 -53 26 -88.5t33 -68.5t55 -53.5t83 -20.5q52 0 98.5 25t80.5 68q13 17 24.5 38t24.5 50.5t26.5 64
t39.5 102.5q39 102 57 149t31.5 79.5t25.5 59t31 64.5l-129 41q0 -6 1 -22v-13q0 -5 -1 -14v-15q-1 -23 -8 -57.5t-17.5 -73.5t-22 -77t-24.5 -75q-33 -94 -57 -152t-47.5 -94.5t-50.5 -53t-62 -16.5q-36 0 -61.5 18t-44.5 55.5t-36.5 96t-40.5 156.5q-13 56 -20.5 97
t-11.5 75t-5.5 65.5t-1.5 75.5z" />
    <glyph glyph-name="uacute" unicode="&#xfa;" horiz-adv-x="927" 
d="M439 754q20 23 51 49t82 56l-72 51l-114 -143zM91 678q11 -25 18.5 -41.5t15.5 -39t18.5 -57t26.5 -91.5q5 -17 16 -60t25 -102q16 -61 16 -62l1 -3q14 -53 26 -88.5t33 -68.5t55 -53.5t83 -20.5q52 0 98.5 25t80.5 68q13 17 24.5 38t24.5 50.5t26.5 64t39.5 102.5
q39 102 57 149t31.5 79.5t25.5 59t31 64.5l-129 41q0 -6 1 -22v-13q0 -5 -1 -14v-15q-1 -23 -8 -57.5t-17.5 -73.5t-22 -77t-24.5 -75q-33 -94 -57 -152t-47.5 -94.5t-50.5 -53t-62 -16.5q-36 0 -61.5 18t-44.5 55.5t-36.5 96t-40.5 156.5q-13 56 -20.5 97t-11.5 75
t-5.5 65.5t-1.5 75.5z" />
    <glyph glyph-name="ucircumflex" unicode="&#xfb;" horiz-adv-x="927" 
d="M613 782q-23 32 -52 65t-82 79l-164 -139l63 -31q21 30 38.5 48.5t55.5 52.5l3 3q23 -22 45 -48.5t37 -57.5zM91 678q11 -25 18.5 -41.5t15.5 -39t18.5 -57t26.5 -91.5q5 -17 16 -60t25 -102q16 -61 16 -62l1 -3q14 -53 26 -88.5t33 -68.5t55 -53.5t83 -20.5
q52 0 98.5 25t80.5 68q13 17 24.5 38t24.5 50.5t26.5 64t39.5 102.5q39 102 57 149t31.5 79.5t25.5 59t31 64.5l-129 41q0 -6 1 -22v-13q0 -5 -1 -14v-15q-1 -23 -8 -57.5t-17.5 -73.5t-22 -77t-24.5 -75q-33 -94 -57 -152t-47.5 -94.5t-50.5 -53t-62 -16.5q-36 0 -61.5 18
t-44.5 55.5t-36.5 96t-40.5 156.5q-13 56 -20.5 97t-11.5 75t-5.5 65.5t-1.5 75.5z" />
    <glyph glyph-name="udieresis" unicode="&#xfc;" horiz-adv-x="927" 
d="M405 817q-13 22 -27.5 33t-38.5 24q-17 -12 -34.5 -29.5t-30.5 -36.5q14 -19 27.5 -31.5t38.5 -22.5q16 11 33.5 26.5t31.5 36.5zM684 828q-21 17 -38 26t-40 16l-2 -1q-15 -11 -28.5 -24t-30.5 -38q17 -17 33 -28.5t48 -24.5q18 18 29 32t29 42zM91 678
q11 -25 18.5 -41.5t15.5 -39t18.5 -57t26.5 -91.5q5 -17 16 -60t25 -102q16 -61 16 -62l1 -3q14 -53 26 -88.5t33 -68.5t55 -53.5t83 -20.5q52 0 98.5 25t80.5 68q13 17 24.5 38t24.5 50.5t26.5 64t39.5 102.5q39 102 57 149t31.5 79.5t25.5 59t31 64.5l-129 41q0 -6 1 -22
v-13q0 -5 -1 -14v-15q-1 -23 -8 -57.5t-17.5 -73.5t-22 -77t-24.5 -75q-33 -94 -57 -152t-47.5 -94.5t-50.5 -53t-62 -16.5q-36 0 -61.5 18t-44.5 55.5t-36.5 96t-40.5 156.5q-13 56 -20.5 97t-11.5 75t-5.5 65.5t-1.5 75.5z" />
    <glyph glyph-name="yacute" unicode="&#xfd;" horiz-adv-x="681" 
d="M321 754q20 23 51 49t82 56l-72 51l-114 -143zM390 0q-12 34 -21 81.5t-9 119.5q0 51 6 107v6l4 5q51 73 88 122.5t81 97.5q51 55 86 78t65 35l-95 79l-1 -2q-15 -24 -24.5 -39.5t-21.5 -32.5t-33 -44t-62 -79q-16 -21 -38 -51t-47 -64q-31 -43 -34 -47
q-65 85 -105.5 141.5t-63.5 94t-33.5 59.5t-23.5 54l-1 2l-105 -84q19 -12 39 -28.5t46 -43.5q32 -34 59 -66t48 -60l94 -130v-2q2 -46 2 -84q0 -136 -40 -225h140z" />
    <glyph glyph-name="thorn" unicode="&#xfe;" horiz-adv-x="666" 
d="M295 0q-14 50 -23 110t-12.5 126.5t-4.5 122t-1 135.5q43 7 85 7q74 0 118 -32.5t44 -96.5q0 -40 -18.5 -70t-45 -49.5t-50.5 -29.5t-54 -19v0q23 -19 49 -35t56 -26q23 17 44.5 36.5t42 47.5t34.5 64t14 78q0 93 -67.5 148.5t-193.5 55.5q-13 0 -28.5 -0.5t-27.5 -1.5
q1 41 4.5 83.5t6.5 63.5q-44 -4 -60 -5.5t-37 -5.5q15 -168 15 -348q0 -69 -1 -115.5t-5 -86t-10.5 -76t-18.5 -81.5h145z" />
    <glyph glyph-name="ydieresis" unicode="&#xff;" horiz-adv-x="681" 
d="M267 817q-13 22 -27.5 33t-38.5 24q-17 -12 -34.5 -29.5t-30.5 -36.5q14 -19 27.5 -31.5t38.5 -22.5q16 11 33.5 26.5t31.5 36.5zM546 828q-21 17 -38 26t-40 16l-2 -1q-15 -11 -28.5 -24t-30.5 -38q17 -17 33 -28.5t48 -24.5q18 18 29 32t29 42zM390 0q-12 34 -21 81.5
t-9 119.5q0 51 6 107v6l4 5q51 73 88 122.5t81 97.5q51 55 86 78t65 35l-95 79l-1 -2q-15 -24 -24.5 -39.5t-21.5 -32.5t-33 -44t-62 -79q-16 -21 -38 -51t-47 -64q-31 -43 -34 -47q-65 85 -105.5 141.5t-63.5 94t-33.5 59.5t-23.5 54l-1 2l-105 -84q19 -12 39 -28.5
t46 -43.5q32 -34 59 -66t48 -60l94 -130v-2q2 -46 2 -84q0 -136 -40 -225h140z" />
    <glyph glyph-name="OE" unicode="&#x152;" horiz-adv-x="1054" 
d="M943 112q-42 -16 -99.5 -27.5t-156.5 -11.5h-26q-19 1 -30 1v1q-4 39 -4.5 50.5t-2.5 43t-3 67t-2 105.5q14 2 28 2.5t30 0.5q61 0 95 -8.5t59 -20.5h1v110q-42 -11 -87 -14.5t-125 -3.5l2 64q5 133 9 171q30 2 61 2q80 0 130 -8.5t100 -22.5h1l-4 100q-61 -8 -161 -8
q-17 0 -44 0.5t-57 1.5q-11 1 -61 4q-35 2 -71.5 4.5t-48.5 2.5q-92 0 -164.5 -32t-121.5 -86t-73.5 -118.5t-24.5 -129.5q0 -63 26 -125t75.5 -113t120 -81t155.5 -30q18 0 36.5 0.5t72.5 3.5q15 1 20 1q25 1 57 2t71 1q58 0 107.5 -2t105.5 -10zM537 643v-1
q4 -33 5.5 -54.5t3 -52.5t2.5 -73t1 -106q0 -41 -2 -95t-5 -128l-3 -60q-36 -6 -72 -6q-61 0 -113.5 23.5t-91.5 65t-60 96t-21 114.5q0 61 22.5 113t62.5 90t93 58.5t112 20.5q30 0 66 -5z" />
    <glyph glyph-name="oe" unicode="&#x153;" horiz-adv-x="1054" 
d="M943 112q-42 -16 -99.5 -27.5t-156.5 -11.5h-26q-19 1 -30 1v1q-4 39 -4.5 50.5t-2.5 43t-3 67t-2 105.5q14 2 28 2.5t30 0.5q61 0 95 -8.5t59 -20.5h1v110q-42 -11 -87 -14.5t-125 -3.5l2 64q5 133 9 171q30 2 61 2q80 0 130 -8.5t100 -22.5h1l-4 100q-61 -8 -161 -8
q-17 0 -44 0.5t-57 1.5q-11 1 -61 4q-35 2 -71.5 4.5t-48.5 2.5q-92 0 -164.5 -32t-121.5 -86t-73.5 -118.5t-24.5 -129.5q0 -63 26 -125t75.5 -113t120 -81t155.5 -30q18 0 36.5 0.5t72.5 3.5q15 1 20 1q25 1 57 2t71 1q58 0 107.5 -2t105.5 -10zM537 643v-1
q4 -33 5.5 -54.5t3 -52.5t2.5 -73t1 -106q0 -41 -2 -95t-5 -128l-3 -60q-36 -6 -72 -6q-61 0 -113.5 23.5t-91.5 65t-60 96t-21 114.5q0 61 22.5 113t62.5 90t93 58.5t112 20.5q30 0 66 -5z" />
    <glyph glyph-name="Scaron" unicode="&#x160;" horiz-adv-x="444" 
d="M73 898q23 -32 52 -65t82 -79l164 139l-63 31q-21 -29 -38.5 -47.5t-55.5 -53.5l-3 -3q-23 22 -45 48.5t-37 57.5zM294 754q-39 -28 -70 -52.5t-57.5 -55t-42.5 -66.5t-16 -77q0 -36 11.5 -63.5t42.5 -70.5l2 -3q31 -45 45.5 -66.5t23.5 -39t12.5 -33t3.5 -36.5
q0 -56 -36.5 -88.5t-110.5 -58.5l82 -94l7 7q55 61 79.5 90t41 53t23 45.5t6.5 47.5q0 35 -15 65t-59 90q-42 59 -60.5 93.5t-18.5 73.5q0 30 13.5 52t36 37.5t45.5 24.5t60 22h1z" />
    <glyph glyph-name="scaron" unicode="&#x161;" horiz-adv-x="444" 
d="M73 898q23 -32 52 -65t82 -79l164 139l-63 31q-21 -29 -38.5 -47.5t-55.5 -53.5l-3 -3q-23 22 -45 48.5t-37 57.5zM294 754q-39 -28 -70 -52.5t-57.5 -55t-42.5 -66.5t-16 -77q0 -36 11.5 -63.5t42.5 -70.5l2 -3q31 -45 45.5 -66.5t23.5 -39t12.5 -33t3.5 -36.5
q0 -56 -36.5 -88.5t-110.5 -58.5l82 -94l7 7q55 61 79.5 90t41 53t23 45.5t6.5 47.5q0 35 -15 65t-59 90q-42 59 -60.5 93.5t-18.5 73.5q0 30 13.5 52t36 37.5t45.5 24.5t60 22h1z" />
    <glyph glyph-name="Ydieresis" unicode="&#x178;" horiz-adv-x="681" 
d="M267 817q-13 22 -27.5 33t-38.5 24q-17 -12 -34.5 -29.5t-30.5 -36.5q14 -19 27.5 -31.5t38.5 -22.5q16 11 33.5 26.5t31.5 36.5zM546 828q-21 17 -38 26t-40 16l-2 -1q-15 -11 -28.5 -24t-30.5 -38q17 -17 33 -28.5t48 -24.5q18 18 29 32t29 42zM390 0q-12 34 -21 81.5
t-9 119.5q0 51 6 107v6l4 5q51 73 88 122.5t81 97.5q51 55 86 78t65 35l-95 79l-1 -2q-15 -24 -24.5 -39.5t-21.5 -32.5t-33 -44t-62 -79q-16 -21 -38 -51t-47 -64q-31 -43 -34 -47q-65 85 -105.5 141.5t-63.5 94t-33.5 59.5t-23.5 54l-1 2l-105 -84q19 -12 39 -28.5
t46 -43.5q32 -34 59 -66t48 -60l94 -130v-2q2 -46 2 -84q0 -136 -40 -225h140z" />
    <glyph glyph-name="florin" unicode="&#x192;" horiz-adv-x="499" 
d="M-35 -130q52 2 86.5 17t55.5 35q16 15 27 31t22.5 45.5t26 81t35.5 133.5l36 142q35 0 68.5 -2.5t62.5 -6.5v62q-12 -1 -27 -3t-26 -3t-22.5 -1.5t-44.5 -2.5l27 101q10 37 17.5 59t19.5 40.5t31 29.5t47 11q24 0 43.5 -7t34.5 -16v94q-19 3 -48 3q-53 0 -90.5 -16.5
t-60 -44.5t-36 -61.5t-25.5 -79.5l-29 -112q-36 1 -59.5 2t-67.5 5l1 -59q36 4 55.5 5.5t59.5 2.5l-62 -252q-11 -46 -22.5 -75.5t-24.5 -46.5q-22 -28 -61 -28q-21 0 -50 12v-95z" />
    <glyph glyph-name="circumflex" unicode="&#x2c6;" horiz-adv-x="442" 
d="M370 782q-23 32 -52 65t-82 79l-164 -139l63 -31q21 30 38.5 48.5t55.5 52.5l3 3q23 -22 45 -48.5t37 -57.5z" />
    <glyph glyph-name="tilde" unicode="&#x2dc;" horiz-adv-x="442" 
d="M372 896q-28 -36 -47.5 -52.5t-34.5 -16.5q-12 0 -22 6t-30 23q-19 17 -33 25t-33 8q-27 0 -58 -22.5t-79 -76.5l40 -36q28 42 50.5 59t37.5 17q11 0 20 -5.5t31 -23.5l4 -3q23 -19 37 -26.5t29 -7.5t33.5 9.5t50.5 44.5l39 41z" />
    <glyph glyph-name="endash" unicode="&#x2013;" horiz-adv-x="500" 
d="M0 338h500v40h-500v-40z" />
    <glyph glyph-name="emdash" unicode="&#x2014;" horiz-adv-x="1000" 
d="M870 378h-740v-40h740v40z" />
    <glyph glyph-name="quoteleft" unicode="&#x2018;" horiz-adv-x="277" 
d="M186 708l-3 -3q-49 -55 -70 -79t-39 -45.5t-40 -47.5q19 -22 32 -36t32 -33l27 10q6 18 16.5 46t21 55.5t25 62.5t28.5 65z" />
    <glyph glyph-name="quoteright" unicode="&#x2019;" horiz-adv-x="277" 
d="M64 464q28 31 45 50t32.5 37.5t26.5 31t48 56.5q-20 24 -32.5 37.5t-31.5 31.5l-27 -9q-6 -18 -16.5 -46.5t-21 -56t-25 -62.5t-28.5 -64z" />
    <glyph glyph-name="quotesinglbase" unicode="&#x201a;" horiz-adv-x="278" 
d="M64 -121l18 20q20 22 61 70q32 36 73 85q-20 24 -32.5 37.5t-31.5 31.5l-27 -9q-23 -69 -46 -125t-45 -104z" />
    <glyph glyph-name="quotedblleft" unicode="&#x201c;" horiz-adv-x="463" 
d="M361 708q-19 -21 -37 -41.5t-34.5 -39.5t-38.5 -45t-41 -49q18 -22 31.5 -36.5t32.5 -32.5l26 10q5 15 14 39.5t23 60t27.5 68t26.5 61.5zM195 708l-3 -3q-49 -55 -70 -79t-39 -45.5t-40 -47.5q22 -25 34.5 -38t30.5 -31l26 10q5 15 14 39.5t23 60t27.5 68t26.5 61.5z
" />
    <glyph glyph-name="quotedblright" unicode="&#x201d;" horiz-adv-x="463" 
d="M73 464l18 20q20 23 61 70q32 36 73 85q-18 22 -31 36t-33 33l-27 -9q-5 -17 -15.5 -45t-22 -58t-25.5 -63t-28 -63zM239 464l18 20q20 23 61 70q32 36 73 85q-18 22 -31 36t-33 33l-26 -9q-5 -15 -14.5 -40.5t-23 -60t-27 -67t-26.5 -61.5z" />
    <glyph glyph-name="quotedblbase" unicode="&#x201e;" horiz-adv-x="463" 
d="M73 -121q28 31 45 50t32.5 37t26.5 31t48 57q-18 22 -31 36t-33 33l-27 -9q-5 -17 -15.5 -45t-22 -58t-25.5 -63t-28 -63zM239 -121q28 31 45 50t32.5 37t26.5 31t48 57q-18 22 -31 36t-33 33l-26 -9q-5 -15 -14.5 -40.5t-23 -60t-27 -67t-26.5 -61.5z" />
    <glyph glyph-name="bullet" unicode="&#x2022;" horiz-adv-x="400" 
d="M200 156q24 19 49.5 45t42.5 47q-19 31 -38 51t-48 39q-23 -13 -45 -32t-53 -55q23 -33 42 -52.5t50 -42.5z" />
    <glyph glyph-name="ellipsis" unicode="&#x2026;" horiz-adv-x="1000" 
d="M162 -5q18 14 36 32.5t30 33.5q-14 22 -27.5 36.5t-33.5 27.5q-15 -9 -31 -22.5t-39 -39.5q16 -23 29.5 -37t35.5 -31zM496 -5q18 15 36.5 33.5t28.5 32.5q-14 22 -27.5 36.5t-33.5 27.5q-15 -9 -31 -22.5t-39 -39.5q16 -23 29.5 -37t36.5 -31zM829 -5q18 14 36 32.5
t30 33.5q-14 22 -27.5 36.5t-34.5 27.5q-15 -9 -31 -22.5t-39 -39.5q16 -23 29.5 -37t36.5 -31z" />
    <glyph glyph-name="guilsinglleft" unicode="&#x2039;" horiz-adv-x="370" 
d="M289 591l-254 -219l259 -226l34 33q-56 55 -98.5 101t-76.5 94q31 44 75.5 90t94.5 90z" />
    <glyph glyph-name="guilsinglright" unicode="&#x203a;" horiz-adv-x="370" 
d="M74 146l254 219l-259 226l-34 -33q55 -53 98 -100t78 -96q-30 -43 -74.5 -88.5t-95.5 -90.5z" />
    <glyph glyph-name="trademark" unicode="&#x2122;" horiz-adv-x="990" 
d="M142 657h112v-307h50v307h112v44h-274v-44zM799 350h49v351h-81l-105 -275l-109 275h-81v-351h49v302h2l122 -302h30l122 302h2v-302z" />
    </font>
</defs>
</svg>
